<?xml version="1.0" encoding="UTF-8"?><svg xmlns="http://www.w3.org/2000/svg" viewBox="0 0 750.64 711.1"><defs><style>.cls-1{stroke-dasharray:0 0 .98 .98;}.cls-1,.cls-2,.cls-3,.cls-4,.cls-5,.cls-6,.cls-7,.cls-8,.cls-9,.cls-10,.cls-11,.cls-12{fill:none;stroke-miterlimit:10;}.cls-1,.cls-2,.cls-3,.cls-4,.cls-5,.cls-7,.cls-8,.cls-9,.cls-10,.cls-12{stroke:#f05943;}.cls-13{fill:#fff;}.cls-2{stroke-dasharray:0 0 1 1;}.cls-3{stroke-dasharray:0 0 1.05 1.05;}.cls-4{stroke-dasharray:0 0 1.04 1.04;}.cls-14{fill:#f05943;}.cls-5{stroke-width:4px;}.cls-6{opacity:.75;}.cls-6,.cls-11{stroke:#231f20;}.cls-7{stroke-width:3px;}.cls-8{stroke-dasharray:0 0 1.13 1.13;}.cls-10{stroke-dasharray:0 0 .9 .9;}.cls-11{stroke-width:.5px;}.cls-12{stroke-dasharray:0 0 1 1;}.cls-15{fill:#231f20;}</style></defs><g id="stage"><rect class="cls-6" x="13.03" y="5.74" width="63.65" height="63.65"/><rect class="cls-6" x="210.71" y="240.01" width="63.65" height="63.65"/><rect class="cls-6" x="13.03" y="238.79" width="63.65" height="63.65"/><rect class="cls-6" x="213.67" y="5.74" width="63.65" height="63.65"/><rect class="cls-6" x="14.03" y="416.68" width="63.65" height="63.65"/></g><g id="portalszz"><rect class="cls-13" x="35.79" y="143.24" width="18.85" height="13.05"/><circle class="cls-15" cx="31.74" cy="149.99" r="5.08"/><circle class="cls-15" cx="58.03" cy="149.99" r="5.08"/><rect class="cls-13" x="36.33" y="513.45" width="18.85" height="13.05"/><circle class="cls-15" cx="32.28" cy="520.21" r="5.08"/><circle class="cls-15" cx="58.57" cy="520.21" r="5.08"/><rect class="cls-13" x="38.58" y="424.14" width="18.85" height="13.05"/><circle class="cls-15" cx="34.53" cy="430.89" r="5.08"/><circle class="cls-15" cx="60.82" cy="430.89" r="5.08"/><rect class="cls-13" x="609.36" y="406.18" width="15.26" height="10.57" transform="translate(-79.02 155.45) rotate(-13.5)"/><circle class="cls-15" cx="606.42" cy="414.19" r="4.12"/><circle class="cls-15" cx="627.12" cy="409.22" r="4.12"/><rect class="cls-13" x="729.31" y="496.5" width="15.26" height="10.57" transform="translate(-139.16 336.51) rotate(-23.57)"/><circle class="cls-15" cx="727.01" cy="506.32" r="4.12"/><circle class="cls-15" cx="746.53" cy="497.81" r="4.12"/><rect class="cls-13" x="38.5" y="315.51" width="16.24" height="11.25"/><circle class="cls-15" cx="35.01" cy="321.33" r="4.38"/><circle class="cls-15" cx="57.66" cy="321.33" r="4.38"/><rect class="cls-13" x="235.43" y="285.31" width="16.24" height="11.25"/><circle class="cls-15" cx="231.94" cy="291.13" r="4.38"/><circle class="cls-15" cx="254.59" cy="291.13" r="4.38"/><rect class="cls-13" x="458.13" y="278.11" width="16.24" height="11.25"/><circle class="cls-15" cx="454.64" cy="283.93" r="4.38"/><circle class="cls-15" cx="477.3" cy="283.93" r="4.38"/><rect class="cls-13" x="35.76" y="8.3" width="18.85" height="13.05"/><circle class="cls-15" cx="31.71" cy="15.05" r="5.08"/><circle class="cls-15" cx="58" cy="15.05" r="5.08"/><rect class="cls-13" x="234.73" y="138.5" width="18.85" height="13.05"/><circle class="cls-15" cx="230.68" cy="145.25" r="5.08"/><circle class="cls-15" cx="256.97" cy="145.25" r="5.08"/><rect class="cls-13" x="229.72" y="519.68" width="18.85" height="13.05"/><circle class="cls-15" cx="225.67" cy="526.44" r="5.08"/><circle class="cls-15" cx="251.96" cy="526.44" r="5.08"/><rect class="cls-13" x="452.43" y="519.82" width="18.85" height="13.05"/><circle class="cls-15" cx="448.37" cy="526.57" r="5.08"/><circle class="cls-15" cx="474.67" cy="526.57" r="5.08"/><rect class="cls-13" x="454.38" y="393.88" width="18.85" height="13.05"/><circle class="cls-15" cx="450.54" cy="400.64" r="5.08"/><circle class="cls-15" cx="476.84" cy="400.64" r="5.08"/><rect class="cls-13" x="29.86" y="676.93" width="18.85" height="13.05"/><circle class="cls-15" cx="26.03" cy="683.68" r="5.08"/><circle class="cls-15" cx="52.32" cy="683.68" r="5.08"/><rect class="cls-13" x="666.59" y="698.05" width="18.85" height="13.05"/><circle class="cls-15" cx="662.76" cy="704.8" r="5.08"/><circle class="cls-15" cx="689.05" cy="704.8" r="5.08"/><rect class="cls-13" x="230.16" y="694.84" width="18.85" height="13.05"/><circle class="cls-15" cx="226.33" cy="701.59" r="5.08"/><circle class="cls-15" cx="252.62" cy="701.59" r="5.08"/><rect class="cls-13" x="453.06" y="691.05" width="18.85" height="13.05"/><circle class="cls-15" cx="449.23" cy="697.8" r="5.08"/><circle class="cls-15" cx="475.52" cy="697.8" r="5.08"/><polygon class="cls-13" points="471.91 593.08 453.06 593.08 460.06 590.03 478.91 590.03 471.91 593.08"/><circle class="cls-15" cx="449.23" cy="586.78" r="5.08"/><circle class="cls-15" cx="475.52" cy="586.78" r="5.08"/><rect class="cls-13" x="450.65" y="136.72" width="18.85" height="13.05"/><circle class="cls-15" cx="446.6" cy="143.47" r="5.08"/><circle class="cls-15" cx="472.89" cy="143.47" r="5.08"/><rect class="cls-13" x="602.19" y="76.1" width="18.85" height="13.05" transform="translate(528.99 694.23) rotate(-90)"/><circle class="cls-15" cx="611.84" cy="96.1" r="5.08"/><circle class="cls-15" cx="611.84" cy="69.8" r="5.08"/><rect class="cls-13" x="712.71" y="76.1" width="18.85" height="13.05" transform="translate(639.51 804.75) rotate(-90)"/><circle class="cls-15" cx="722.36" cy="96.1" r="5.08"/><circle class="cls-15" cx="722.36" cy="69.8" r="5.08"/><rect class="cls-13" x="233.92" width="18.85" height="13.05"/><circle class="cls-15" cx="229.87" cy="6.75" r="5.08"/><circle class="cls-15" cx="256.16" cy="6.75" r="5.08"/></g><g id="performers_and_audience"><path class="cls-15" d="m19.77,59.72c-.81-1.57-.17-3.52,1.44-4.36s3.57-.24,4.39,1.34,1.04,5.21-.57,6.04-4.45-1.45-5.26-3.03Z"/><path class="cls-15" d="m33.48,57.05c.64-1.65,2.52-2.46,4.21-1.81s2.55,2.52,1.91,4.17-3.21,4.24-4.9,3.59-1.87-4.29-1.23-5.95Z"/><path class="cls-15" d="m50.7,45.29c-.52-1.69.47-3.49,2.21-4.02s3.56.42,4.07,2.11.08,5.31-1.65,5.84-4.11-2.24-4.63-3.93Z"/><path class="cls-15" d="m29.34,31.16c0-1.77,1.47-3.21,3.28-3.21s3.28,1.44,3.28,3.21-1.47,5.11-3.28,5.11-3.28-3.34-3.28-5.11Z"/><path class="cls-15" d="m64.54,46.78c1.02-1.45,3.05-1.78,4.53-.73s1.86,3.06.84,4.51-4.14,3.33-5.62,2.29-.77-4.62.25-6.07Z"/><path class="cls-11" d="m12.26,76.86c-.28,1.75.95,3.4,2.74,3.68s3.47-.9,3.75-2.65-.65-5.28-2.44-5.56-3.77,2.78-4.05,4.53Z"/><path class="cls-11" d="m12.31,83.36c-1.77-.41-3.95,2.52-4.34,4.24s.71,3.45,2.48,3.86,3.52-.66,3.92-2.39-.29-5.31-2.05-5.71"/><path class="cls-11" d="m7.33,93.32c-1.8-.18-3.59,3-3.76,4.76s1.15,3.33,2.95,3.51,3.41-1.11,3.58-2.87-.96-5.23-2.77-5.4"/><path class="cls-11" d="m26,72.94c-1.74-.52-4.1,2.26-4.61,3.95s.49,3.49,2.23,4.01,3.56-.44,4.06-2.13.05-5.31-1.68-5.83"/><path class="cls-11" d="m32.57,77.57c.1,1.77,1.64,3.12,3.45,3.02s3.2-1.61,3.1-3.38-1.75-5.02-3.56-4.92-3.1,3.51-3,5.28Z"/><path class="cls-11" d="m30.86,81.83c-1.79.29-2.7,3.82-2.42,5.57s1.97,2.93,3.76,2.63,3.01-1.95,2.72-3.69-2.27-4.8-4.06-4.51"/><path class="cls-11" d="m27.07,91.83c-1.81,0-3.28,3.34-3.28,5.11s1.47,3.21,3.28,3.21,3.28-1.44,3.28-3.21-1.47-5.11-3.28-5.11"/><path class="cls-11" d="m21.43,84.3c-1.81,0-3.28,3.34-3.28,5.11s1.47,3.21,3.28,3.21,3.28-1.44,3.28-3.21-1.47-5.11-3.28-5.11"/><path class="cls-11" d="m58.92,76.23c-.12,1.77,1.24,3.3,3.05,3.43s3.38-1.2,3.5-2.97-1.11-5.2-2.92-5.32-3.51,3.1-3.63,4.86Z"/><path class="cls-11" d="m55.07,76.46c-1.8-.25-3.71,2.85-3.95,4.61s1.01,3.38,2.81,3.63,3.45-.97,3.69-2.72-.75-5.26-2.55-5.51"/><path class="cls-11" d="m50.98,86.82c-1.81-.02-3.31,3.31-3.33,5.08s1.44,3.22,3.25,3.24,3.3-1.4,3.31-3.17-1.42-5.12-3.23-5.14"/><path class="cls-11" d="m47.69,71.36c-1.81-.02-3.31,3.31-3.33,5.08s1.44,3.22,3.25,3.24,3.3-1.4,3.31-3.17-1.42-5.12-3.23-5.14"/><path class="cls-11" d="m71.7,72.36c-1.78.35-2.58,3.9-2.25,5.64s2.06,2.87,3.83,2.52,2.95-2.04,2.61-3.77-2.42-4.73-4.2-4.39"/><path class="cls-11" d="m78.01,81.01c-1.76.45-2.35,4.05-1.92,5.76s2.22,2.74,3.97,2.29,2.83-2.2,2.39-3.92-2.69-4.58-4.45-4.14"/><path class="cls-11" d="m75.11,91.3c-1.81.16-2.98,3.61-2.82,5.38s1.75,3.06,3.55,2.9,3.14-1.72,2.99-3.48-1.91-4.96-3.72-4.8"/><path class="cls-11" d="m62.32,81.05c-1.81.16-2.98,3.61-2.82,5.38s1.75,3.06,3.55,2.9,3.14-1.72,2.99-3.48-1.91-4.96-3.72-4.8"/><path class="cls-11" d="m70.18,82.38c-1.81.16-2.98,3.61-2.82,5.38s1.75,3.06,3.55,2.9,3.14-1.72,2.99-3.48-1.91-4.96-3.72-4.8"/><path class="cls-11" d="m44.01,80.23c-1.78-.34-3.85,2.67-4.18,4.41s.85,3.42,2.63,3.76,3.49-.8,3.82-2.54-.49-5.29-2.27-5.63"/><path class="cls-11" d="m15.19,99.45c-.28,1.75.95,3.4,2.74,3.68s3.47-.9,3.75-2.65-.65-5.28-2.44-5.56-3.77,2.78-4.05,4.53Z"/><path class="cls-11" d="m29.82,101.67c-1.74-.52-4.1,2.26-4.61,3.95s.49,3.49,2.23,4.01,3.56-.44,4.06-2.13.05-5.31-1.68-5.83"/><path class="cls-11" d="m39.79,96c.1,1.77,1.64,3.12,3.45,3.02s3.2-1.61,3.1-3.38-1.75-5.02-3.56-4.92-3.1,3.51-3,5.28Z"/><path class="cls-11" d="m36.89,104.22c-1.81-.1-3.46,3.15-3.56,4.92s1.29,3.28,3.1,3.38,3.36-1.25,3.45-3.02-1.19-5.18-3-5.28"/><path class="cls-11" d="m62.19,110.26c-1.81,0-3.28,3.34-3.28,5.11s1.47,3.21,3.28,3.21,3.28-1.44,3.28-3.21-1.47-5.11-3.28-5.11"/><path class="cls-11" d="m21.73,107.53c-1.81,0-3.28,3.34-3.28,5.11s1.47,3.21,3.28,3.21,3.28-1.44,3.28-3.21-1.47-5.11-3.28-5.11"/><path class="cls-11" d="m62.66,95.77c-.12,1.77,1.24,3.3,3.05,3.43s3.38-1.2,3.5-2.97-1.11-5.2-2.92-5.32-3.51,3.1-3.63,4.86Z"/><path class="cls-11" d="m59.13,91.29c-1.8-.25-3.71,2.85-3.95,4.61s1.01,3.38,2.81,3.63,3.45-.97,3.69-2.72-.75-5.26-2.55-5.51"/><path class="cls-11" d="m57.7,101.48c-1.81-.02-3.31,3.31-3.33,5.08s1.44,3.22,3.25,3.24,3.3-1.4,3.31-3.17-1.42-5.12-3.23-5.14"/><path class="cls-11" d="m35.35,93.95c-1.81-.02-3.31,3.31-3.33,5.08s1.44,3.22,3.25,3.24,3.3-1.4,3.31-3.17-1.42-5.12-3.23-5.14"/><path class="cls-11" d="m80.1,101.81c-1.78.35-2.58,3.9-2.25,5.64s2.06,2.87,3.83,2.52,2.95-2.04,2.61-3.77-2.42-4.73-4.2-4.39"/><path class="cls-11" d="m53.42,112.66c-1.81.16-2.98,3.61-2.82,5.38s1.75,3.06,3.55,2.9,3.14-1.72,2.99-3.48-1.91-4.96-3.72-4.8"/><path class="cls-11" d="m66.06,100.59c-1.81.16-2.98,3.61-2.82,5.38s1.75,3.06,3.55,2.9,3.14-1.72,2.99-3.48-1.91-4.96-3.72-4.8"/><path class="cls-11" d="m73.12,104.96c-1.81.16-2.98,3.61-2.82,5.38s1.75,3.06,3.55,2.9,3.14-1.72,2.99-3.48-1.91-4.96-3.72-4.8"/><path class="cls-11" d="m88.11,99.53c-1.81.16-2.98,3.61-2.82,5.38s1.75,3.06,3.55,2.9,3.14-1.72,2.99-3.48-1.91-4.96-3.72-4.8"/><path class="cls-11" d="m83.18,90.6c-1.81.16-2.98,3.61-2.82,5.38s1.75,3.06,3.55,2.9,3.14-1.72,2.99-3.48-1.91-4.96-3.72-4.8"/><path class="cls-11" d="m50.24,98.68c-1.78-.34-3.85,2.67-4.18,4.41s.85,3.42,2.63,3.76,3.49-.8,3.82-2.54-.49-5.29-2.27-5.63"/><path class="cls-11" d="m4.1,103.37c-1.8-.2-3.63,2.95-3.83,4.71s1.1,3.35,2.91,3.55,3.42-1.06,3.62-2.82-.89-5.24-2.69-5.44"/><path class="cls-15" d="m263.87,61.75c.81-1.57.17-3.52-1.44-4.36s-3.57-.24-4.39,1.34-1.04,5.21.57,6.04,4.45-1.45,5.26-3.03Z"/><path class="cls-15" d="m250.16,59.08c-.64-1.65-2.52-2.46-4.21-1.81s-2.55,2.52-1.91,4.17,3.21,4.24,4.9,3.59,1.87-4.29,1.23-5.95Z"/><path class="cls-15" d="m229.41,66.87c.51-1.69-.48-3.49-2.22-4.02s-3.56.42-4.07,2.12-.07,5.31,1.66,5.84,4.11-2.24,4.62-3.94Z"/><path class="cls-15" d="m693.01,84.84c-1.55-.85-3.52-.25-4.39,1.33s-.32,3.57,1.23,4.42,5.18,1.17,6.06-.42-1.34-4.48-2.9-5.34Z"/><path class="cls-15" d="m231.28,50.01c1.76-.17,3.05-1.77,2.87-3.58s-1.75-3.13-3.51-2.96-4.94,1.96-4.76,3.76,3.64,2.94,5.4,2.77Z"/><path class="cls-15" d="m264.25,30.92c-1.72-.43-3.47.65-3.91,2.4s.59,3.53,2.31,3.96,5.31-.18,5.75-1.94-2.44-4-4.16-4.43Z"/><path class="cls-15" d="m224.61,37.79c.95-1.49.48-3.49-1.05-4.47s-3.54-.55-4.49.95-1.5,5.1.04,6.07,4.56-1.06,5.51-2.55Z"/><path class="cls-15" d="m643.19,84.43c1.51.92,3.5.41,4.44-1.14s.48-3.55-1.04-4.47-5.13-1.39-6.07.16,1.15,4.54,2.66,5.46Z"/><path class="cls-15" d="m15.93,478.75c0-1.77,1.47-3.21,3.28-3.21s3.28,1.44,3.28,3.21-1.47,5.11-3.28,5.11-3.28-3.34-3.28-5.11Z"/><path class="cls-11" d="m15.93,491.48c0,1.77,1.47,3.21,3.28,3.21s3.28-1.44,3.28-3.21-1.47-5.11-3.28-5.11-3.28,3.34-3.28,5.11Z"/><path class="cls-11" d="m26.33,491.48c0,1.77,1.47,3.21,3.28,3.21s3.28-1.44,3.28-3.21-1.47-5.11-3.28-5.11-3.28,3.34-3.28,5.11Z"/><path class="cls-15" d="m41.57,293.01c0-1.77,1.47-3.21,3.28-3.21s3.28,1.44,3.28,3.21-1.47,5.11-3.28,5.11-3.28-3.34-3.28-5.11Z"/><path class="cls-11" d="m41.57,309.99c0,1.77,1.47,3.21,3.28,3.21s3.28-1.44,3.28-3.21-1.47-5.11-3.28-5.11-3.28,3.34-3.28,5.11Z"/><path class="cls-15" d="m239.25,261.43c0-1.77,1.47-3.21,3.28-3.21s3.28,1.44,3.28,3.21-1.47,5.11-3.28,5.11-3.28-3.34-3.28-5.11Z"/><path class="cls-11" d="m239.25,278.41c0,1.77,1.47,3.21,3.28,3.21s3.28-1.44,3.28-3.21-1.47-5.11-3.28-5.11-3.28,3.34-3.28,5.11Z"/><path class="cls-15" d="m462.39,254.37c0-1.77,1.47-3.21,3.28-3.21s3.28,1.44,3.28,3.21-1.47,5.11-3.28,5.11-3.28-3.34-3.28-5.11Z"/><path class="cls-11" d="m462.39,271.36c0,1.77,1.47,3.21,3.28,3.21s3.28-1.44,3.28-3.21-1.47-5.11-3.28-5.11-3.28,3.34-3.28,5.11Z"/><path class="cls-15" d="m238.82,395.52c0-1.77,1.47-3.21,3.28-3.21s3.28,1.44,3.28,3.21-1.47,5.11-3.28,5.11-3.28-3.34-3.28-5.11Z"/><path class="cls-11" d="m238.82,408.35c0,1.77,1.47,3.21,3.28,3.21s3.28-1.44,3.28-3.21-1.47-5.11-3.28-5.11-3.28,3.34-3.28,5.11Z"/><path class="cls-15" d="m280.23,422.12c1.29-1.22,3.34-1.14,4.58.18s1.22,3.37-.07,4.59-4.72,2.45-5.97,1.13.17-4.68,1.45-5.9Z"/><path class="cls-11" d="m270.92,430.95c-1.29,1.22-1.32,3.27-.07,4.59s3.3,1.4,4.58.18,2.7-4.58,1.45-5.9-4.68-.09-5.97,1.13Z"/><path class="cls-15" d="m656.35,252.8c.05-1.77,1.56-3.16,3.37-3.12s3.24,1.52,3.19,3.29-1.61,5.07-3.42,5.02-3.19-3.42-3.14-5.19Z"/><path class="cls-11" d="m656,265.62c-.05,1.77,1.38,3.24,3.19,3.29s3.32-1.35,3.37-3.12-1.33-5.15-3.14-5.19-3.37,3.25-3.42,5.02Z"/><path class="cls-15" d="m226.71,449.62c-1.4-1.08-1.64-3.12-.53-4.56s3.14-1.72,4.54-.64,3.14,4.29,2.03,5.72-4.65.56-6.05-.53Z"/><path class="cls-11" d="m236.86,457.46c1.4,1.08,3.44.8,4.54-.64s.87-3.48-.53-4.56-4.94-1.96-6.05-.53.63,4.64,2.03,5.72Z"/><path class="cls-15" d="m188.71,464.61c-1.43,1.04-3.46.7-4.52-.76s-.78-3.5.65-4.54,4.99-1.83,6.06-.36-.76,4.62-2.19,5.66Z"/><path class="cls-11" d="m199.06,457.05c1.43-1.04,1.72-3.08.65-4.54s-3.1-1.8-4.52-.76-3.26,4.2-2.19,5.66,4.63.68,6.06-.36Z"/><path class="cls-15" d="m220.91,496.3c-.46,1.71-2.25,2.72-4,2.25s-2.8-2.23-2.35-3.94,2.74-4.56,4.49-4.09,2.31,4.07,1.86,5.78Z"/><path class="cls-11" d="m224.21,483.91c.46-1.71-.59-3.48-2.35-3.94s-3.54.54-4,2.25.1,5.31,1.86,5.78,4.03-2.38,4.49-4.09Z"/><path class="cls-15" d="m270.43,490.55c-.46,1.71-2.25,2.72-4,2.25s-2.8-2.23-2.35-3.94,2.74-4.56,4.49-4.09,2.31,4.07,1.86,5.78Z"/><path class="cls-11" d="m273.78,478.7c.46-1.71-.59-3.48-2.35-3.94s-3.54.54-4,2.25.1,5.31,1.86,5.78,4.03-2.38,4.49-4.09Z"/><path class="cls-15" d="m208.51,428.41c-.46,1.71-2.25,2.72-4,2.25s-2.8-2.23-2.35-3.94,2.74-4.56,4.49-4.09,2.31,4.07,1.86,5.78Z"/><path class="cls-11" d="m211.82,416.01c.46-1.71-.59-3.48-2.35-3.94s-3.54.54-4,2.25.1,5.31,1.86,5.78,4.03-2.38,4.49-4.09Z"/><path class="cls-15" d="m37.09,478.75c0-1.77,1.47-3.21,3.28-3.21s3.28,1.44,3.28,3.21-1.47,5.11-3.28,5.11-3.28-3.34-3.28-5.11Z"/><path class="cls-11" d="m37.09,491.48c0,1.77,1.47,3.21,3.28,3.21s3.28-1.44,3.28-3.21-1.47-5.11-3.28-5.11-3.28,3.34-3.28,5.11Z"/><path class="cls-15" d="m47.68,478.75c0-1.77,1.47-3.21,3.28-3.21s3.28,1.44,3.28,3.21-1.47,5.11-3.28,5.11-3.28-3.34-3.28-5.11Z"/><path class="cls-11" d="m47.68,491.48c0,1.77,1.47,3.21,3.28,3.21s3.28-1.44,3.28-3.21-1.47-5.11-3.28-5.11-3.28,3.34-3.28,5.11Z"/><path class="cls-15" d="m58.89,478.75c0-1.77,1.47-3.21,3.28-3.21s3.28,1.44,3.28,3.21-1.47,5.11-3.28,5.11-3.28-3.34-3.28-5.11Z"/><path class="cls-15" d="m69.48,478.75c0-1.77,1.47-3.21,3.28-3.21s3.28,1.44,3.28,3.21-1.47,5.11-3.28,5.11-3.28-3.34-3.28-5.11Z"/><path class="cls-11" d="m69.48,491.48c0,1.77,1.47,3.21,3.28,3.21s3.28-1.44,3.28-3.21-1.47-5.11-3.28-5.11-3.28,3.34-3.28,5.11Z"/><path class="cls-15" d="m465.03,441.65c1.49-.95,1.92-2.96.95-4.49s-2.97-2-4.47-1.05-3.52,3.98-2.55,5.51,4.58.98,6.07.03Z"/><path class="cls-15" d="m458.28,466.4c1.49-.95,1.92-2.96.95-4.49s-2.97-2-4.47-1.05-3.52,3.98-2.55,5.51,4.58.98,6.07.03Z"/><path class="cls-15" d="m430.12,473.35c1.65-.64,2.45-2.54,1.79-4.22s-2.53-2.53-4.18-1.89-4.22,3.23-3.56,4.92,4.3,1.84,5.95,1.2Z"/><path class="cls-15" d="m470.47,478.05c-1.68-.55-3.5.41-4.06,2.13s.35,3.57,2.03,4.11c1.68.55,5.31.18,5.87-1.54s-2.16-4.15-3.84-4.7Z"/><path class="cls-15" d="m510.5,472.22c.08,1.77,1.62,3.13,3.43,3.05s3.21-1.59,3.13-3.36-1.71-5.03-3.52-4.95-3.12,3.49-3.04,5.26Z"/><path class="cls-11" d="m412.09,472.12c-1.65.65-2.44,2.55-1.77,4.23s2.55,2.52,4.19,1.87c1.65-.65,4.2-3.25,3.53-4.94s-4.31-1.82-5.96-1.17Z"/><path class="cls-11" d="m412.97,480.45c-1.34,1.16-1.46,3.21-.27,4.58s3.23,1.54,4.57.38,2.9-4.46,1.71-5.83c-1.19-1.37-4.67-.29-6.01.87Z"/><path class="cls-11" d="m410.65,470.88c-1.77.07-3.26-1.33-3.34-3.15s1.3-3.34,3.07-3.41,5.16,1.26,5.24,3.07-3.2,3.42-4.97,3.49Z"/><path class="cls-11" d="m460.93,422.08c-.36-1.73-2.1-2.83-3.87-2.46s-2.92,2.08-2.55,3.81,2.49,4.69,4.26,4.32,2.52-3.94,2.16-5.67Z"/><path class="cls-11" d="m452.58,421.54c-.92-1.51-2.92-1.98-4.47-1.04s-2.07,2.93-1.15,4.44,3.9,3.61,5.45,2.67,1.08-4.55.17-6.07Z"/><path class="cls-11" d="m463.14,424.27c.76-1.6,2.71-2.26,4.34-1.48s2.34,2.71,1.58,4.31-3.53,3.97-5.16,3.19-1.52-4.43-.76-6.02Z"/><path class="cls-11" d="m501.27,455.25c1.46-1.01,1.8-3.03.77-4.52s-3.05-1.89-4.5-.88-3.37,4.11-2.34,5.6,4.61.81,6.07-.2Z"/><path class="cls-11" d="m498.54,447.33c1.04-1.43.7-3.46-.76-4.52s-3.5-.78-4.54.65-1.82,4.99-.36,6.06,4.62-.76,5.66-2.19Z"/><path class="cls-11" d="m497.01,457.8c1.71-.47,3.48.57,3.96,2.32s-.52,3.55-2.22,4.01-5.31-.07-5.79-1.81,2.35-4.05,4.06-4.52Z"/><path class="cls-11" d="m487.52,494.19c1.43,1.04,3.46.69,4.52-.78s.76-3.5-.67-4.54-5-1.8-6.06-.34.78,4.62,2.21,5.65Z"/><path class="cls-11" d="m496.41,490.69c1.7.51,3.49-.49,4.01-2.23s-.44-3.56-2.13-4.06c-1.7-.51-5.31-.05-5.83,1.68s2.26,4.1,3.95,4.61Z"/><path class="cls-11" d="m499.3,497.08c1.01,1.45.62,3.47-.86,4.51s-3.51.7-4.53-.76-1.71-5.03-.22-6.07,4.6.86,5.61,2.32Z"/><path class="cls-11" d="m452.52,487.87c-.19,1.76,1.12,3.34,2.92,3.54s3.42-1.08,3.61-2.84-.91-5.24-2.72-5.43c-1.8-.19-3.62,2.97-3.81,4.73Z"/><path class="cls-11" d="m429.7,496.34c-.96,1.49-.51,3.49,1.01,4.47,1.52.99,3.54.58,4.5-.91s1.54-5.09.02-6.07-4.57,1.02-5.53,2.5Z"/><path class="cls-11" d="m436.22,502.78c-.3,1.74.9,3.41,2.69,3.72s3.48-.85,3.78-2.6-.57-5.28-2.36-5.59-3.8,2.73-4.11,4.47Z"/><path class="cls-11" d="m444.16,504.4c-.3,1.74.9,3.41,2.69,3.72,1.79.31,3.48-.85,3.78-2.6s-.57-5.28-2.36-5.59-3.8,2.73-4.11,4.47Z"/><path class="cls-11" d="m450.75,488.57c-.76,1.6-2.7,2.26-4.34,1.49-1.64-.78-2.35-2.71-1.59-4.3s3.52-3.98,5.16-3.2,1.53,4.42.77,6.02Z"/><path class="cls-11" d="m437.76,458.57c-1.69-.53-3.5.45-4.04,2.18s.39,3.56,2.08,4.09c1.69.53,5.31.12,5.85-1.61s-2.21-4.13-3.9-4.66Z"/><path class="cls-11" d="m437.42,456.7c-1.42-1.06-1.7-3.09-.61-4.55s3.11-1.78,4.53-.72,3.22,4.23,2.14,5.68-4.64.64-6.06-.41Z"/><path class="cls-11" d="m486.56,422.14c.93-1.5.44-3.5-1.1-4.45s-3.55-.51-4.48.99-1.44,5.11.1,6.07,4.55-1.11,5.48-2.61Z"/><path class="cls-11" d="m487.55,469.5c1.49.95,1.91,2.96.94,4.49-.97,1.53-2.97,2-4.47,1.05s-3.52-3.98-2.54-5.51,4.58-.98,6.07-.03Z"/><path class="cls-11" d="m415.83,443.73c-1.57-.83-2.15-2.8-1.3-4.4s2.8-2.23,4.37-1.41,3.83,3.68,2.98,5.29-4.48,1.35-6.05.52Z"/><path class="cls-11" d="m451.09,430.6c-1.08-1.4-3.12-1.64-4.56-.53s-1.72,3.14-.64,4.54,4.28,3.15,5.72,2.04.56-4.65-.52-6.05Z"/><path class="cls-11" d="m443.33,433.74c-1.48-.97-3.49-.52-4.48,1s-.59,3.53.89,4.5,5.08,1.56,6.07.04-1-4.57-2.49-5.54Z"/><path class="cls-11" d="m438.86,426.94c-.56-1.68.39-3.51,2.11-4.08s3.57.33,4.13,2.01.21,5.31-1.51,5.88-4.17-2.13-4.72-3.81Z"/><path class="cls-15" d="m36.89,635.26c.08-1.77,1.62-3.13,3.43-3.05s3.21,1.59,3.13,3.36-1.71,5.03-3.52,4.95-3.12-3.49-3.04-5.26Z"/><path class="cls-11" d="m43.45,672.02c0,1.77-1.47,3.21-3.28,3.21s-3.28-1.44-3.28-3.21,1.47-5.11,3.28-5.11,3.28,3.34,3.28,5.11Z"/><path class="cls-11" d="m45.14,107.53c-1.81-.1-3.46,3.15-3.56,4.92s1.29,3.28,3.1,3.38,3.36-1.25,3.45-3.02-1.19-5.18-3-5.28"/><path class="cls-11" d="m617.01,103.51c.1,1.77,1.64,3.12,3.45,3.02s3.2-1.61,3.1-3.38-1.75-5.02-3.56-4.92-3.1,3.51-3,5.28Z"/><path class="cls-11" d="m615.29,107.77c-1.79.29-2.7,3.82-2.42,5.57s1.97,2.93,3.76,2.63,3.01-1.95,2.72-3.69-2.27-4.8-4.06-4.51"/><path class="cls-11" d="m643.36,102.17c-.12,1.77,1.24,3.3,3.05,3.43s3.38-1.2,3.5-2.97-1.11-5.2-2.92-5.32-3.51,3.1-3.63,4.86Z"/><path class="cls-11" d="m639.51,102.39c-1.8-.25-3.71,2.85-3.95,4.61s1.01,3.38,2.81,3.63,3.45-.97,3.69-2.72-.75-5.26-2.55-5.51"/><path class="cls-11" d="m700.48,116.04c-1.81-.02-3.31,3.31-3.33,5.08s1.44,3.22,3.25,3.24,3.3-1.4,3.31-3.17c.02-1.77-1.42-5.12-3.23-5.14"/><path class="cls-11" d="m632.13,97.3c-1.81-.02-3.31,3.31-3.33,5.08s1.44,3.22,3.25,3.24,3.3-1.4,3.31-3.17-1.42-5.12-3.23-5.14"/><path class="cls-11" d="m656.14,98.29c-1.78.35-2.58,3.9-2.25,5.64s2.06,2.87,3.83,2.52,2.95-2.04,2.61-3.77-2.42-4.73-4.2-4.39"/><path class="cls-11" d="m646.76,106.99c-1.81.16-2.98,3.61-2.82,5.38s1.75,3.06,3.55,2.9,3.14-1.72,2.99-3.48-1.91-4.96-3.72-4.8"/><path class="cls-11" d="m654.62,108.31c-1.81.16-2.98,3.61-2.82,5.38s1.75,3.06,3.55,2.9,3.14-1.72,2.99-3.48-1.91-4.96-3.72-4.8"/><path class="cls-11" d="m627.58,106.75c-1.78-.34-3.85,2.67-4.18,4.41s.85,3.42,2.63,3.76,3.49-.8,3.82-2.54-.49-5.29-2.27-5.63"/><path class="cls-11" d="m688.14,122.18c.1,1.77,1.64,3.12,3.45,3.02s3.2-1.61,3.1-3.38-1.75-5.02-3.56-4.92-3.1,3.51-3,5.28Z"/><path class="cls-11" d="m713.57,100.29c1.74-.52,4.1,2.26,4.61,3.95s-.49,3.49-2.23,4.01-3.56-.44-4.06-2.13c-.51-1.7-.05-5.31,1.68-5.83"/><path class="cls-11" d="m707,104.92c-.1,1.77-1.64,3.12-3.45,3.02s-3.2-1.61-3.1-3.38c.1-1.77,1.75-5.02,3.56-4.92s3.1,3.51,3,5.28Z"/><path class="cls-11" d="m708.71,109.18c1.79.29,2.7,3.82,2.42,5.57-.29,1.75-1.97,2.93-3.76,2.63s-3.01-1.95-2.72-3.69c.29-1.75,2.27-4.8,4.06-4.51"/><path class="cls-11" d="m718.13,111.65c1.81,0,3.28,3.34,3.28,5.11s-1.47,3.21-3.28,3.21-3.28-1.44-3.28-3.21c0-1.77,1.47-5.11,3.28-5.11"/><path class="cls-11" d="m680.65,103.58c.12,1.77-1.24,3.3-3.05,3.43s-3.38-1.2-3.5-2.97c-.12-1.77,1.11-5.2,2.92-5.32s3.51,3.1,3.63,4.86Z"/><path class="cls-11" d="m684.5,103.81c1.8-.25,3.71,2.85,3.95,4.61s-1.01,3.38-2.81,3.63-3.45-.97-3.69-2.72.75-5.26,2.55-5.51"/><path class="cls-11" d="m674.49,109.93c1.81-.02,3.31,3.31,3.33,5.08s-1.44,3.22-3.25,3.24-3.3-1.4-3.31-3.17c-.02-1.77,1.42-5.12,3.23-5.14"/><path class="cls-11" d="m691.87,98.71c1.81-.02,3.31,3.31,3.33,5.08s-1.44,3.22-3.25,3.24-3.3-1.4-3.31-3.17,1.42-5.12,3.23-5.14"/><path class="cls-11" d="m667.87,99.7c1.78.35,2.58,3.9,2.25,5.64s-2.06,2.87-3.83,2.52-2.95-2.04-2.61-3.77,2.42-4.73,4.2-4.39"/><path class="cls-11" d="m665.57,110.03c1.81.16,2.98,3.61,2.82,5.38s-1.75,3.06-3.55,2.9-3.14-1.72-2.99-3.48,1.91-4.96,3.72-4.8"/><path class="cls-11" d="m695.55,107.58c1.78-.34,3.85,2.67,4.18,4.41s-.85,3.42-2.63,3.76-3.49-.8-3.82-2.54.49-5.29,2.27-5.63"/><path class="cls-11" d="m685.68,119.11c-.1,1.77-1.64,3.12-3.45,3.02s-3.2-1.61-3.1-3.38,1.75-5.02,3.56-4.92,3.1,3.51,3,5.28Z"/><path class="cls-11" d="m646.68,119.57c-1.81-.02-3.31,3.31-3.33,5.08s1.44,3.22,3.25,3.24,3.3-1.4,3.31-3.17-1.42-5.12-3.23-5.14"/><path class="cls-11" d="m659.23,117.81c1.79.29,2.7,3.82,2.42,5.57s-1.97,2.93-3.76,2.63-3.01-1.95-2.72-3.69,2.27-4.8,4.06-4.51"/><path class="cls-11" d="m625.76,116.52c1.81-.02,3.31,3.31,3.33,5.08s-1.44,3.22-3.25,3.24-3.3-1.4-3.31-3.17,1.42-5.12,3.23-5.14"/><path class="cls-11" d="m618.17,123.91c-.1,1.77-1.64,3.12-3.45,3.02s-3.2-1.61-3.1-3.38,1.75-5.02,3.56-4.92,3.1,3.51,3,5.28Z"/><path class="cls-11" d="m617.01,65.32c.1-1.77,1.64-3.12,3.45-3.02s3.2,1.61,3.1,3.38-1.75,5.02-3.56,4.92-3.1-3.51-3-5.28Z"/><path class="cls-11" d="m615.29,61.06c-1.79-.29-2.7-3.82-2.42-5.57s1.97-2.93,3.76-2.63,3.01,1.95,2.72,3.69-2.27,4.8-4.06,4.51"/><path class="cls-11" d="m643.36,66.66c-.12-1.77,1.24-3.3,3.05-3.43s3.38,1.2,3.5,2.97-1.11,5.2-2.92,5.32-3.51-3.1-3.63-4.86Z"/><path class="cls-11" d="m639.51,66.44c-1.8.25-3.71-2.85-3.95-4.61s1.01-3.38,2.81-3.63,3.45.97,3.69,2.72-.75,5.26-2.55,5.51"/><path class="cls-11" d="m700.48,52.79c-1.81.02-3.31-3.31-3.33-5.08s1.44-3.22,3.25-3.24,3.3,1.4,3.31,3.17c.02,1.77-1.42,5.12-3.23,5.14"/><path class="cls-11" d="m632.13,71.53c-1.81.02-3.31-3.31-3.33-5.08s1.44-3.22,3.25-3.24,3.3,1.4,3.31,3.17-1.42,5.12-3.23,5.14"/><path class="cls-11" d="m656.14,70.54c-1.78-.35-2.58-3.9-2.25-5.64s2.06-2.87,3.83-2.52,2.95,2.04,2.61,3.77-2.42,4.73-4.2,4.39"/><path class="cls-11" d="m646.76,61.84c-1.81-.16-2.98-3.61-2.82-5.38s1.75-3.06,3.55-2.9,3.14,1.72,2.99,3.48-1.91,4.96-3.72,4.8"/><path class="cls-11" d="m654.62,60.52c-1.81-.16-2.98-3.61-2.82-5.38s1.75-3.06,3.55-2.9,3.14,1.72,2.99,3.48-1.91,4.96-3.72,4.8"/><path class="cls-11" d="m628.45,62.67c-1.78.34-3.85-2.67-4.18-4.41s.85-3.42,2.63-3.76,3.49.8,3.82,2.54-.49,5.29-2.27,5.63"/><path class="cls-11" d="m688.14,46.65c.1-1.77,1.64-3.12,3.45-3.02s3.2,1.61,3.1,3.38-1.75,5.02-3.56,4.92-3.1-3.51-3-5.28Z"/><path class="cls-11" d="m713.57,68.54c1.74.52,4.1-2.26,4.61-3.95s-.49-3.49-2.23-4.01-3.56.44-4.06,2.13c-.51,1.7-.05,5.31,1.68,5.83"/><path class="cls-11" d="m707,63.91c-.1-1.77-1.64-3.12-3.45-3.02s-3.2,1.61-3.1,3.38c.1,1.77,1.75,5.02,3.56,4.92s3.1-3.51,3-5.28Z"/><path class="cls-11" d="m708.71,59.65c1.79-.29,2.7-3.82,2.42-5.57s-1.97-2.93-3.76-2.63-3.01,1.95-2.72,3.69c.29,1.75,2.27,4.8,4.06,4.51"/><path class="cls-11" d="m680.65,65.25c.12-1.77-1.24-3.3-3.05-3.43s-3.38,1.2-3.5,2.97c-.12,1.77,1.11,5.2,2.92,5.32s3.51-3.1,3.63-4.86Z"/><path class="cls-11" d="m684.5,65.02c1.8.25,3.71-2.85,3.95-4.61s-1.01-3.38-2.81-3.63-3.45.97-3.69,2.72.75,5.26,2.55,5.51"/><path class="cls-11" d="m674.49,58.9c1.81.02,3.31-3.31,3.33-5.08s-1.44-3.22-3.25-3.24-3.3,1.4-3.31,3.17c-.02,1.77,1.42,5.12,3.23,5.14"/><path class="cls-11" d="m691.87,70.12c1.81.02,3.31-3.31,3.33-5.08s-1.44-3.22-3.25-3.24-3.3,1.4-3.31,3.17,1.42,5.12,3.23,5.14"/><path class="cls-11" d="m667.87,69.13c1.78-.35,2.58-3.9,2.25-5.64s-2.06-2.87-3.83-2.52-2.95,2.04-2.61,3.77,2.42,4.73,4.2,4.39"/><path class="cls-11" d="m665.57,58.81c1.81-.16,2.98-3.61,2.82-5.38s-1.75-3.06-3.55-2.9-3.14,1.72-2.99,3.48,1.91,4.96,3.72,4.8"/><path class="cls-11" d="m695.55,61.25c1.78.34,3.85-2.67,4.18-4.41s-.85-3.42-2.63-3.76-3.49.8-3.82,2.54.49,5.29,2.27,5.63"/><path class="cls-11" d="m685.68,49.72c-.1-1.77-1.64-3.12-3.45-3.02s-3.2,1.61-3.1,3.38,1.75,5.02,3.56,4.92,3.1-3.51,3-5.28Z"/><path class="cls-11" d="m646.68,49.26c-1.81.02-3.31-3.31-3.33-5.08s1.44-3.22,3.25-3.24,3.3,1.4,3.31,3.17-1.42,5.12-3.23,5.14"/><path class="cls-11" d="m659.23,51.02c1.79-.29,2.7-3.82,2.42-5.57s-1.97-2.93-3.76-2.63-3.01,1.95-2.72,3.69,2.27,4.8,4.06,4.51"/><path class="cls-11" d="m625.76,52.31c1.81.02,3.31-3.31,3.33-5.08s-1.44-3.22-3.25-3.24-3.3,1.4-3.31,3.17,1.42,5.12,3.23,5.14"/><path class="cls-11" d="m636.42,55.49c1.78.34,3.85-2.67,4.18-4.41s-.85-3.42-2.63-3.76-3.49.8-3.82,2.54.49,5.29,2.27,5.63"/><path class="cls-11" d="m618.17,44.92c-.1-1.77-1.64-3.12-3.45-3.02s-3.2,1.61-3.1,3.38,1.75,5.02,3.56,4.92,3.1-3.51,3-5.28Z"/><path class="cls-15" d="m453.6,55.5c0,1.77,1.47,3.21,3.28,3.21s3.28-1.44,3.28-3.21-1.47-5.11-3.28-5.11-3.28,3.34-3.28,5.11Z"/><path class="cls-15" d="m708.61,85.16c1.15-1.35.96-3.39-.42-4.57s-3.43-1.03-4.58.32-2.19,4.84-.81,6.02,4.66-.42,5.81-1.76Z"/><path class="cls-15" d="m450.62,73.69c-1.55-.85-3.52-.25-4.39,1.33s-.32,3.57,1.23,4.42,5.18,1.17,6.06-.42-1.34-4.48-2.9-5.34Z"/><path class="cls-15" d="m466.21,74.01c1.15-1.35.96-3.39-.42-4.57s-3.43-1.03-4.58.32-2.19,4.84-.81,6.02,4.66-.42,5.81-1.76Z"/><path class="cls-11" d="m462.27,107.46c-1.81.16-2.98,3.61-2.82,5.38s1.75,3.06,3.55,2.9,3.14-1.72,2.99-3.48-1.91-4.96-3.72-4.8"/><path class="cls-11" d="m452.78,107.43c-1.81.16-2.98,3.61-2.82,5.38s1.75,3.06,3.55,2.9,3.14-1.72,2.99-3.48-1.91-4.96-3.72-4.8"/><path class="cls-11" d="m444.12,105.79c-1.5-1.01-4.59.94-5.57,2.41s-.57,3.48.94,4.49,3.53.64,4.51-.83,1.63-5.06.12-6.07"/><path class="cls-11" d="m436.75,99.8c-1.5-1.01-4.59.94-5.57,2.41s-.57,3.48.94,4.49,3.53.64,4.51-.83,1.63-5.06.12-6.07"/><path class="cls-11" d="m430.56,93.78c-.82-1.62-4.46-1.43-6.04-.63s-2.2,2.75-1.39,4.37,2.76,2.29,4.34,1.49,3.9-3.61,3.08-5.23"/><path class="cls-11" d="m427.08,84.94c-.82-1.62-4.46-1.43-6.04-.63s-2.2,2.75-1.39,4.37,2.76,2.29,4.34,1.49,3.9-3.61,3.08-5.23"/><path class="cls-11" d="m424.97,77.28c0-1.81-3.34-3.28-5.11-3.28s-3.21,1.47-3.21,3.28,1.44,3.28,3.21,3.28,5.11-1.47,5.11-3.28"/><path class="cls-11" d="m426.42,67.66c.2-1.8-2.96-3.63-4.72-3.82s-3.35,1.11-3.54,2.92,1.07,3.42,2.83,3.61,5.24-.91,5.43-2.71"/><path class="cls-11" d="m471.92,104.88c1.62-.81,4.42,1.53,5.21,3.12s.11,3.52-1.52,4.33-3.58.17-4.36-1.41c-.79-1.59-.95-5.23.67-6.03"/><path class="cls-11" d="m480,99.91c1.62-.81,4.42,1.53,5.21,3.12s.11,3.52-1.52,4.33-3.58.17-4.36-1.41-.95-5.23.67-6.03"/><path class="cls-11" d="m486.54,93.99c.76-1.65,4.4-1.59,6.01-.85s2.3,2.67,1.54,4.32-2.68,2.38-4.28,1.64-4.03-3.47-3.27-5.12"/><path class="cls-11" d="m489.7,85.04c.76-1.65,4.4-1.59,6.01-.85s2.3,2.67,1.54,4.32-2.68,2.38-4.28,1.64-4.03-3.47-3.27-5.12"/><path class="cls-11" d="m429.89,58.52c.95-1.55-1.13-4.54-2.64-5.47s-3.5-.42-4.45,1.12-.49,3.55,1.02,4.47,5.12,1.41,6.07-.13"/><path class="cls-11" d="m435.56,50.91c.95-1.55-1.13-4.54-2.64-5.47s-3.5-.42-4.45,1.12-.49,3.55,1.02,4.47,5.12,1.41,6.07-.13"/><path class="cls-11" d="m442.04,44.92c1.71-.61,1.98-4.24,1.38-5.91s-2.46-2.53-4.17-1.92-2.61,2.45-2.02,4.12,3.09,4.32,4.8,3.71"/><path class="cls-11" d="m451.24,42.57c1.71-.61,1.98-4.24,1.38-5.91s-2.46-2.53-4.17-1.92-2.61,2.45-2.02,4.12,3.09,4.32,4.8,3.71"/><path class="cls-11" d="m491.85,76.67c-.15-1.81,3.06-3.54,4.82-3.69s3.31,1.2,3.46,3.01-1.16,3.39-2.93,3.53-5.21-1.05-5.36-2.86"/><path class="cls-11" d="m490.21,67.32c-.15-1.81,3.06-3.54,4.82-3.69s3.31,1.2,3.46,3.01-1.16,3.39-2.93,3.53-5.21-1.05-5.36-2.86"/><path class="cls-11" d="m488.01,59.68c-.95-1.55,1.14-4.54,2.65-5.46s3.5-.42,4.45,1.13.49,3.55-1.02,4.47-5.12,1.41-6.07-.14"/><path class="cls-11" d="m482.35,52.06c-.95-1.55,1.14-4.54,2.65-5.46s3.5-.42,4.45,1.13.49,3.55-1.02,4.47-5.12,1.41-6.07-.14"/><path class="cls-11" d="m475.83,48.14c-1.43-1.11-.54-4.65.55-6.05s3.13-1.63,4.56-.51,1.71,3.15.62,4.55-4.3,3.13-5.73,2.02"/><path class="cls-11" d="m468.71,44.6c-1.78-.35-2.58-3.91-2.23-5.65s2.06-2.86,3.84-2.51,2.94,2.04,2.6,3.78-2.43,4.73-4.21,4.38"/><path class="cls-11" d="m459.26,43.62c-1.78-.35-2.58-3.91-2.23-5.65s2.06-2.86,3.84-2.51,2.94,2.04,2.6,3.78-2.43,4.73-4.21,4.38"/><path class="cls-15" d="m627.39,82.91c-1.15,1.35-.96,3.39.42,4.57s3.43,1.03,4.58-.32,2.19-4.84.81-6.02-4.66.42-5.81,1.76Z"/><path class="cls-15" d="m466.86,91c1.51.92,3.5.41,4.44-1.14s.48-3.55-1.04-4.47-5.13-1.39-6.07.16,1.15,4.54,2.66,5.46Z"/><path class="cls-15" d="m451.06,89.49c-1.15,1.35-.96,3.39.42,4.57s3.43,1.03,4.58-.32,2.19-4.84.81-6.02-4.66.42-5.81,1.76Z"/><path class="cls-11" d="m495.99,92.8c-.2,1.8,2.96,3.63,4.72,3.82s3.35-1.11,3.54-2.92-1.07-3.42-2.83-3.61-5.24.91-5.43,2.71"/><path class="cls-11" d="m489.47,102.55c-.95,1.55,1.13,4.54,2.64,5.47s3.5.42,4.45-1.12.49-3.55-1.02-4.47-5.12-1.41-6.07.13"/><path class="cls-11" d="m480.73,111.38c-.95,1.55,1.13,4.54,2.64,5.47s3.5.42,4.45-1.12.49-3.55-1.02-4.47-5.12-1.41-6.07.13"/><path class="cls-11" d="m474.26,115.53c-1.71.61-1.98,4.24-1.38,5.91s2.46,2.53,4.17,1.92,2.61-2.45,2.02-4.12-3.09-4.32-4.8-3.71"/><path class="cls-11" d="m463.04,33.26c1.78-.35,2.58-3.9,2.25-5.64s-2.06-2.87-3.83-2.52-2.95,2.04-2.61,3.77,2.42,4.73,4.2,4.39"/><path class="cls-11" d="m474.29,36.6c1.76.45,4-2.43,4.44-4.14s-.64-3.47-2.39-3.91-3.53.58-3.97,2.3.17,5.31,1.92,5.76"/><path class="cls-11" d="m485.31,42.33c1.76.45,4-2.43,4.44-4.14s-.64-3.47-2.39-3.91-3.53.58-3.97,2.3.17,5.31,1.92,5.76"/><path class="cls-11" d="m491.19,47.28c1.09,1.45,4.64.63,6.06-.43s1.69-3.1.6-4.55-3.12-1.77-4.53-.71-3.21,4.24-2.12,5.69"/><path class="cls-11" d="m496.02,52.66c.55,1.73,4.18,2.11,5.86,1.57s2.61-2.38,2.05-4.1-2.37-2.69-4.05-2.15-4.42,2.95-3.87,4.68"/><path class="cls-11" d="m498.16,60.12c.14,1.81,3.58,3.01,5.35,2.87s3.08-1.72,2.94-3.52-1.69-3.16-3.45-3.02-4.98,1.86-4.84,3.67"/><path class="cls-11" d="m465.06,117.88c-1.71.61-1.98,4.24-1.38,5.91s2.46,2.53,4.17,1.92,2.61-2.45,2.02-4.12-3.09-4.32-4.8-3.71"/><path class="cls-11" d="m421.11,96.89c.38,1.77-2.58,3.91-4.31,4.28s-3.44-.77-3.82-2.54.72-3.51,2.45-3.88,5.3.37,5.68,2.14"/><path class="cls-11" d="m425.1,103.75c1.17,1.38-.42,4.66-1.77,5.81s-3.39.96-4.57-.43-1.03-3.43.32-4.58,4.84-2.19,6.02-.8"/><path class="cls-11" d="m431.88,110.39c1.17,1.38-.42,4.66-1.77,5.81s-3.39.96-4.57-.43-1.03-3.43.32-4.58,4.84-2.19,6.02-.8"/><path class="cls-11" d="m438.19,114.16c1.73.56,2.1,4.18,1.56,5.87s-2.38,2.6-4.11,2.05-2.69-2.37-2.14-4.06,2.96-4.41,4.69-3.86"/><path class="cls-11" d="m501.36,79.71c.62-1.7,4.26-1.95,5.92-1.34s2.51,2.48,1.89,4.18-2.47,2.59-4.13,1.99-4.3-3.13-3.68-4.83"/><path class="cls-11" d="m501.5,72.37c-.37-1.77,2.59-3.9,4.32-4.26s3.44.78,3.81,2.55-.73,3.51-2.46,3.87-5.3-.39-5.67-2.16"/><path class="cls-11" d="m447.59,115.86c1.78.35,2.58,3.91,2.23,5.65s-2.06,2.86-3.84,2.51-2.94-2.04-2.6-3.78,2.43-4.73,4.21-4.38"/><path class="cls-11" d="m457.03,116.84c1.78.35,2.58,3.91,2.23,5.65s-2.06,2.86-3.84,2.51-2.94-2.04-2.6-3.78,2.43-4.73,4.21-4.38"/><path class="cls-11" d="m415.06,85.43c-.41-1.77-3.99-2.45-5.71-2.05s-2.79,2.15-2.39,3.92,2.14,2.88,3.86,2.48,4.65-2.58,4.24-4.35"/><path class="cls-11" d="m413.78,76.02c-.41-1.77-3.99-2.45-5.71-2.05s-2.79,2.15-2.39,3.92c.41,1.77,2.14,2.88,3.86,2.48s4.65-2.58,4.24-4.35"/><path class="cls-11" d="m420.56,49.75c-.75,1.65-4.4,1.61-6.01.88s-2.31-2.66-1.56-4.31,2.66-2.4,4.28-1.66,4.04,3.45,3.29,5.1"/><path class="cls-11" d="m417.79,58.9c-.55,1.73-4.18,2.11-5.86,1.57s-2.61-2.38-2.05-4.1,2.37-2.69,4.05-2.15,4.42,2.95,3.87,4.68"/><path class="cls-11" d="m415.74,68.17c-.55,1.73-4.18,2.11-5.86,1.57s-2.61-2.38-2.05-4.1,2.37-2.69,4.05-2.15,4.42,2.95,3.87,4.68"/><path class="cls-11" d="m739.82,501.26c.83,1.56.2,3.52-1.4,4.37-1.6.85-3.57.27-4.4-1.29s-1.1-5.2.51-6.05,4.46,1.41,5.29,2.97Z"/><path class="cls-11" d="m718.5,471.19c-1.24,1.26-3.3,1.25-4.59-.02-1.29-1.27-1.33-3.33-.09-4.59s4.63-2.61,5.92-1.34,0,4.68-1.24,5.94Z"/><path class="cls-11" d="m666.61,463.67c1.08-1.4,3.12-1.64,4.56-.54s1.73,3.14.65,4.54-4.28,3.15-5.72,2.04-.57-4.65.51-6.05Z"/><path class="cls-11" d="m631.63,441.17c-1.5.94-3.5.45-4.46-1.09-.96-1.54-.52-3.55.99-4.48s5.11-1.45,6.07.09-1.1,4.55-2.6,5.49Z"/><path class="cls-11" d="m637.67,446.84c-.41,1.72-2.17,2.78-3.93,2.37-1.76-.42-2.87-2.15-2.46-3.87s2.6-4.63,4.37-4.22,2.43,4,2.02,5.72Z"/><path class="cls-11" d="m619.95,402.02c-.41,1.72-2.17,2.78-3.93,2.37s-2.87-2.15-2.46-3.87,2.6-4.63,4.37-4.22,2.43,4,2.02,5.72Z"/><path class="cls-15" d="m721.52,456.06c.94-1.5,2.95-1.94,4.48-.98s2.02,2.96,1.08,4.46-3.95,3.55-5.49,2.59-1.01-4.57-.07-6.07Z"/><path class="cls-15" d="m666.91,480.05c-.28,1.75-1.95,2.94-3.74,2.65-1.79-.28-3.02-1.93-2.74-3.68s2.25-4.81,4.04-4.53,2.72,3.81,2.44,5.56Z"/><path class="cls-15" d="m646.11,431.04c1.39-1.09,3.43-.82,4.55.61s.89,3.47-.5,4.56-4.93,1.99-6.04.56.6-4.64,2-5.73Z"/><path class="cls-11" d="m21.63,655.76c-1.77,0-3.21-1.47-3.21-3.28s1.44-3.28,3.21-3.28,5.11,1.47,5.11,3.28-3.34,3.28-5.11,3.28Z"/><path class="cls-11" d="m59.03,655.76c1.77,0,3.21-1.47,3.21-3.28s-1.44-3.28-3.21-3.28-5.11,1.47-5.11,3.28,3.34,3.28,5.11,3.28Z"/><path class="cls-11" d="m27.69,663.53c-.94,1.5-2.94,1.94-4.48.98-1.54-.96-2.03-2.95-1.09-4.46s3.95-3.56,5.49-2.6,1.02,4.57.08,6.07Z"/><path class="cls-11" d="m58.02,646.88c1.54-.88,2.05-2.87,1.15-4.44s-2.88-2.13-4.41-1.25-3.7,3.82-2.8,5.39,4.53,1.19,6.06.31Z"/><path class="cls-11" d="m32.58,671.33c-1.25,1.25-3.3,1.23-4.59-.04s-1.31-3.33-.06-4.59,4.64-2.58,5.93-1.3-.03,4.68-1.28,5.94Z"/><path class="cls-11" d="m28.69,638.58c-.55-1.68.39-3.5,2.12-4.07,1.72-.57,3.57.34,4.12,2.02s.2,5.31-1.52,5.88-4.16-2.14-4.71-3.82Z"/><path class="cls-11" d="m22.42,645.91c-1.32-1.18-1.4-3.24-.19-4.58s3.26-1.48,4.58-.3c1.32,1.18,2.82,4.51,1.61,5.86s-4.68.21-5.99-.97Z"/><path class="cls-11" d="m55.17,664.69c1.62.71,3.53-.06,4.25-1.72s0-3.58-1.62-4.29c-1.62-.71-5.27-.7-5.99.96s1.74,4.34,3.37,5.05Z"/><path class="cls-11" d="m47.28,670.24c1.05,1.42,3.09,1.7,4.55.62s1.78-3.11.73-4.53-4.22-3.23-5.68-2.15c-1.46,1.08-.65,4.64.41,6.06Z"/><path class="cls-11" d="m51.69,639.37c.85-1.55.25-3.52-1.34-4.39s-3.57-.31-4.42,1.24-1.16,5.19.43,6.06,4.48-1.36,5.33-2.91Z"/><path class="cls-15" d="m674.14,626.73c.08-1.77,1.62-3.13,3.43-3.05,1.81.09,3.21,1.59,3.13,3.36-.08,1.77-1.71,5.03-3.52,4.95-1.81-.09-3.12-3.49-3.04-5.26Z"/><path class="cls-15" d="m646.89,683.51c-.35,1.73-2.08,2.85-3.86,2.49s-2.93-2.06-2.58-3.8,2.46-4.71,4.24-4.35,2.55,3.93,2.2,5.66Z"/><path class="cls-15" d="m709.73,675.65c1.59-.77,3.53-.07,4.32,1.56.79,1.63.14,3.58-1.46,4.35s-5.24.9-6.03-.73c-.79-1.63,1.57-4.41,3.17-5.18Z"/><path class="cls-11" d="m668.35,684.47c-.81,1.57-2.78,2.17-4.39,1.34s-2.26-2.78-1.45-4.35,3.65-3.86,5.26-3.03,1.39,4.47.57,6.04Z"/><path class="cls-11" d="m659.41,674.45c-1.51.93-3.5.43-4.45-1.11s-.5-3.55,1-4.48c1.51-.93,5.12-1.43,6.07.11.95,1.54-1.12,4.55-2.62,5.48Z"/><path class="cls-11" d="m690.59,679.58c1.31,1.19,3.36,1.08,4.58-.26s1.16-3.39-.15-4.59-4.76-2.36-5.98-1.02c-1.22,1.34.25,4.67,1.55,5.87Z"/><path class="cls-11" d="m697.09,665.55c1.77,0,3.21-1.47,3.21-3.28s-1.44-3.28-3.21-3.28-5.11,1.47-5.11,3.28c0,1.81,3.34,3.28,5.11,3.28Z"/><path class="cls-11" d="m672.8,643.72c-.13-1.77,1.23-3.3,3.04-3.44s3.38,1.19,3.51,2.96c.13,1.77-1.09,5.2-2.9,5.33s-3.52-3.09-3.65-4.85Z"/><path class="cls-11" d="m659.51,650.26c-1.32-1.18-1.4-3.24-.19-4.58s3.26-1.48,4.58-.3,2.82,4.51,1.61,5.86-4.68.21-5.99-.97Z"/><path class="cls-11" d="m655.91,662.44c-1.77-.12-3.1-1.69-2.97-3.5.12-1.81,1.66-3.18,3.42-3.05,1.77.12,4.99,1.82,4.87,3.63s-3.56,3.04-5.32,2.92Z"/><path class="cls-11" d="m677.42,684.54c.07,1.77,1.59,3.15,3.4,3.08s3.23-1.56,3.16-3.33c-.07-1.77-1.66-5.05-3.47-4.98-1.81.07-3.15,3.46-3.09,5.23Z"/><path class="cls-11" d="m694.8,649.94c1.2-1.3,1.09-3.35-.24-4.58-1.33-1.23-3.39-1.17-4.59.13s-2.38,4.75-1.04,5.98,4.68-.23,5.87-1.53Z"/><path class="cls-15" d="m238.51,629.74c.08-1.77,1.62-3.13,3.43-3.05s3.21,1.59,3.13,3.36-1.71,5.03-3.52,4.95-3.12-3.49-3.04-5.26Z"/><path class="cls-15" d="m265.6,648.42c1.43-1.05,3.45-.72,4.53.74s.79,3.49-.63,4.54-4.98,1.85-6.06.39.74-4.62,2.16-5.67Z"/><path class="cls-15" d="m255.59,686.53c.81,1.58.15,3.52-1.46,4.35s-3.58.22-4.38-1.36-1.02-5.22.59-6.04c1.61-.83,4.44,1.47,5.25,3.05Z"/><path class="cls-15" d="m218.56,681.94c-1.41,1.08-3.44.78-4.54-.66s-.86-3.48.55-4.56,4.95-1.94,6.05-.5-.65,4.64-2.06,5.71Z"/><path class="cls-15" d="m211.06,650.31c-1.57-.82-2.15-2.79-1.31-4.4s2.8-2.24,4.36-1.42c1.57.82,3.84,3.68,3,5.28s-4.48,1.36-6.05.53Z"/><path class="cls-11" d="m243.61,688.36c.19,1.76-1.12,3.34-2.92,3.54s-3.42-1.08-3.61-2.84.91-5.24,2.72-5.43c1.8-.19,3.62,2.97,3.81,4.73Z"/><path class="cls-11" d="m217.12,642.62c-1.45-1.01-1.79-3.04-.75-4.53s3.06-1.87,4.51-.86,3.35,4.13,2.31,5.61-4.61.78-6.07-.23Z"/><path class="cls-11" d="m265.99,666.65c1.77,0,3.21-1.47,3.21-3.28s-1.44-3.28-3.21-3.28c-1.77,0-5.11,1.47-5.11,3.28s3.34,3.28,5.11,3.28Z"/><path class="cls-11" d="m210.74,661.6c-1.76.21-3.35-1.09-3.57-2.89s1.04-3.43,2.8-3.63,5.24.86,5.45,2.67-2.93,3.65-4.69,3.86Z"/><path class="cls-11" d="m213.14,670.99c-1.69.54-3.5-.43-4.05-2.16s.37-3.56,2.06-4.1c1.69-.54,5.31-.15,5.86,1.58s-2.19,4.14-3.87,4.67Z"/><path class="cls-11" d="m263.1,644.59c1.54-.88,2.05-2.87,1.15-4.44s-2.88-2.13-4.41-1.25-3.7,3.82-2.8,5.39,4.53,1.19,6.06.31Z"/><path class="cls-11" d="m231.09,688.54c-.9,1.52-2.9,2-4.46,1.08s-2.09-2.91-1.18-4.43,3.87-3.64,5.43-2.71,1.12,4.55.21,6.07Z"/><path class="cls-11" d="m226.16,633.36c-.62-1.66.26-3.52,1.96-4.15s3.58.2,4.19,1.86.4,5.3-1.3,5.93-4.24-1.99-4.85-3.65Z"/><path class="cls-11" d="m262.13,675.57c1.62.71,3.53-.06,4.25-1.72s0-3.58-1.62-4.29c-1.62-.71-5.27-.7-5.99.96s1.74,4.34,3.37,5.05Z"/><path class="cls-11" d="m257.01,683.91c1.37,1.12,3.41.9,4.56-.5s.98-3.45-.39-4.57c-1.37-1.12-4.88-2.11-6.03-.71s.49,4.65,1.86,5.78Z"/><path class="cls-11" d="m256.77,637.08c.85-1.55.25-3.52-1.34-4.39-1.59-.87-3.57-.31-4.42,1.24s-1.16,5.19.43,6.06c1.59.87,4.48-1.36,5.33-2.91Z"/><path class="cls-15" d="m458.89,600.15c.91-1.52,2.9-2,4.46-1.08s2.09,2.91,1.18,4.43-3.87,3.64-5.43,2.71-1.11-4.55-.21-6.07Z"/><path class="cls-15" d="m506.14,636.78c1.48.97,1.88,2.98.89,4.5s-3,1.96-4.48.99-3.47-4.02-2.48-5.54,4.59-.92,6.07.05Z"/><path class="cls-15" d="m485.69,686.77c-.69,1.63-2.6,2.38-4.27,1.68s-2.47-2.6-1.78-4.23,3.34-4.14,5.01-3.43c1.67.7,1.73,4.35,1.04,5.98Z"/><path class="cls-15" d="m430.94,678.67c-.45,1.71-2.24,2.72-3.99,2.26-1.75-.46-2.81-2.22-2.36-3.94s2.72-4.56,4.48-4.1,2.32,4.06,1.87,5.78Z"/><path class="cls-11" d="m457.98,620.43c0,1.77,1.47,3.21,3.28,3.21,1.81,0,3.28-1.44,3.28-3.21s-1.47-5.11-3.28-5.11-3.28,3.34-3.28,5.11Z"/><path class="cls-11" d="m464.66,672.68c0-1.77-1.47-3.21-3.28-3.21s-3.28,1.44-3.28,3.21,1.47,5.11,3.28,5.11,3.28-3.34,3.28-5.11Z"/><path class="cls-11" d="m434.3,649.7c1.77,0,3.21-1.47,3.21-3.28s-1.44-3.28-3.21-3.28c-1.77,0-5.11,1.47-5.11,3.28s3.34,3.28,5.11,3.28Z"/><path class="cls-11" d="m486.54,643.1c-1.77,0-3.21,1.47-3.21,3.28s1.44,3.28,3.21,3.28c1.77,0,5.11-1.47,5.11-3.28s-3.34-3.28-5.11-3.28Z"/><path class="cls-11" d="m486.44,654.1c-1.6-.75-3.53-.02-4.29,1.62s-.09,3.58,1.52,4.33,5.25.83,6.02-.81-1.63-4.39-3.24-5.14Z"/><path class="cls-11" d="m481.16,663.01c-1.44-1.03-3.46-.68-4.52.79s-.75,3.5.69,4.54,5,1.79,6.06.32-.79-4.61-2.23-5.65Z"/><path class="cls-11" d="m474.95,669.68c-.71-1.62-2.63-2.35-4.29-1.63s-2.44,2.63-1.73,4.25c.71,1.62,3.39,4.09,5.05,3.37s1.67-4.37.97-5.99Z"/><path class="cls-11" d="m468.67,620.17c-.87,1.54-.3,3.51,1.28,4.41s3.56.37,4.44-1.17,1.24-5.17-.34-6.06-4.5,1.29-5.37,2.83Z"/><path class="cls-11" d="m477.15,626.13c-1.14,1.35-.95,3.4.44,4.57,1.38,1.17,3.43,1.02,4.58-.33,1.14-1.35,2.17-4.85.79-6.02s-4.66.43-5.8,1.78Z"/><path class="cls-11" d="m483.31,632.84c-1.67.58-2.55,2.44-1.96,4.15s2.43,2.63,4.1,2.05,4.35-3.06,3.75-4.77-4.23-2.01-5.9-1.43Z"/><path class="cls-11" d="m436.49,640.45c1.68.57,3.51-.37,4.09-2.08s-.31-3.57-1.99-4.14-5.31-.24-5.89,1.47,2.11,4.18,3.79,4.75Z"/><path class="cls-11" d="m440.75,631.01c1.54.87,3.51.29,4.4-1.29s.36-3.56-1.18-4.43c-1.54-.87-5.17-1.22-6.06.36-.89,1.58,1.3,4.5,2.84,5.37Z"/><path class="cls-11" d="m447.76,624.03c.71,1.62,2.63,2.35,4.29,1.63s2.44-2.63,1.73-4.25-3.39-4.09-5.05-3.37c-1.66.72-1.67,4.37-.97,5.99Z"/><path class="cls-11" d="m454.11,671.82c.88-1.54.31-3.51-1.26-4.41s-3.56-.38-4.44,1.16c-.88,1.54-1.25,5.16.32,6.06s4.5-1.27,5.38-2.81Z"/><path class="cls-11" d="m445.65,665.83c1.15-1.35.96-3.39-.42-4.57s-3.43-1.03-4.58.31-2.19,4.84-.81,6.02,4.66-.41,5.81-1.76Z"/><path class="cls-11" d="m438.71,659.83c1.74-.3,2.91-2,2.6-3.78s-1.98-2.99-3.72-2.69c-1.74.3-4.78,2.32-4.47,4.11.31,1.79,3.85,2.66,5.59,2.36Z"/><path class="cls-11" d="m213.7,76.95c-.28,1.75.95,3.4,2.74,3.68s3.47-.9,3.75-2.65-.65-5.28-2.44-5.56-3.77,2.78-4.05,4.53Z"/><path class="cls-11" d="m213.76,83.44c-1.77-.41-3.95,2.52-4.34,4.24s.71,3.45,2.48,3.86,3.52-.66,3.92-2.39-.29-5.31-2.05-5.71"/><path class="cls-11" d="m208.77,93.4c-1.8-.18-3.59,3-3.76,4.76s1.15,3.33,2.95,3.51,3.41-1.11,3.58-2.87-.96-5.23-2.77-5.4"/><path class="cls-11" d="m227.44,73.02c-1.74-.52-4.1,2.26-4.61,3.95s.49,3.49,2.23,4.01,3.56-.44,4.06-2.13.05-5.31-1.68-5.83"/><path class="cls-11" d="m234.01,77.66c.1,1.77,1.64,3.12,3.45,3.02s3.2-1.61,3.1-3.38-1.75-5.02-3.56-4.92-3.1,3.51-3,5.28Z"/><path class="cls-11" d="m232.3,81.92c-1.79.29-2.7,3.82-2.42,5.57s1.97,2.93,3.76,2.63,3.01-1.95,2.72-3.69-2.27-4.8-4.06-4.51"/><path class="cls-11" d="m228.51,91.91c-1.81,0-3.28,3.34-3.28,5.11s1.47,3.21,3.28,3.21,3.28-1.44,3.28-3.21-1.47-5.11-3.28-5.11"/><path class="cls-11" d="m222.87,84.39c-1.81,0-3.28,3.34-3.28,5.11s1.47,3.21,3.28,3.21,3.28-1.44,3.28-3.21-1.47-5.11-3.28-5.11"/><path class="cls-11" d="m260.36,76.32c-.12,1.77,1.24,3.3,3.05,3.43s3.38-1.2,3.5-2.97-1.11-5.2-2.92-5.32-3.51,3.1-3.63,4.86Z"/><path class="cls-11" d="m256.51,76.54c-1.8-.25-3.71,2.85-3.95,4.61s1.01,3.38,2.81,3.63,3.45-.97,3.69-2.72-.75-5.26-2.55-5.51"/><path class="cls-11" d="m252.42,86.91c-1.81-.02-3.31,3.31-3.33,5.08s1.44,3.22,3.25,3.24,3.3-1.4,3.31-3.17-1.42-5.12-3.23-5.14"/><path class="cls-11" d="m249.14,71.45c-1.81-.02-3.31,3.31-3.33,5.08s1.44,3.22,3.25,3.24,3.3-1.4,3.31-3.17-1.42-5.12-3.23-5.14"/><path class="cls-11" d="m273.14,72.44c-1.78.35-2.58,3.9-2.25,5.64s2.06,2.87,3.83,2.52,2.95-2.04,2.61-3.77-2.42-4.73-4.2-4.39"/><path class="cls-11" d="m263.76,81.14c-1.81.16-2.98,3.61-2.82,5.38s1.75,3.06,3.55,2.9,3.14-1.72,2.99-3.48-1.91-4.96-3.72-4.8"/><path class="cls-11" d="m271.63,82.46c-1.81.16-2.98,3.61-2.82,5.38s1.75,3.06,3.55,2.9,3.14-1.72,2.99-3.48-1.91-4.96-3.72-4.8"/><path class="cls-11" d="m245.45,80.32c-1.78-.34-3.85,2.67-4.18,4.41s.85,3.42,2.63,3.76,3.49-.8,3.82-2.54-.49-5.29-2.27-5.63"/><path class="cls-11" d="m216.64,99.54c-.28,1.75.95,3.4,2.74,3.68s3.47-.9,3.75-2.65-.65-5.28-2.44-5.56-3.77,2.78-4.05,4.53Z"/><path class="cls-11" d="m231.26,101.76c-1.74-.52-4.1,2.26-4.61,3.95s.49,3.49,2.23,4.01,3.56-.44,4.06-2.13.05-5.31-1.68-5.83"/><path class="cls-11" d="m241.23,96.09c.1,1.77,1.64,3.12,3.45,3.02s3.2-1.61,3.1-3.38-1.75-5.02-3.56-4.92-3.1,3.51-3,5.28Z"/><path class="cls-11" d="m238.34,104.31c-1.81-.1-3.46,3.15-3.56,4.92s1.29,3.28,3.1,3.38,3.36-1.25,3.45-3.02-1.19-5.18-3-5.28"/><path class="cls-11" d="m194.76,88.94c-1.48-1.05-4.61.82-5.63,2.26s-.66,3.46.82,4.51,3.51.73,4.53-.71,1.76-5.02.28-6.06"/><path class="cls-11" d="m200.64,93.63c-1.68-.68-4.29,1.87-4.95,3.51s.17,3.52,1.85,4.2,3.58-.11,4.24-1.75.54-5.29-1.14-5.96"/><path class="cls-11" d="m263.63,110.34c-1.81,0-3.28,3.34-3.28,5.11s1.47,3.21,3.28,3.21,3.28-1.44,3.28-3.21-1.47-5.11-3.28-5.11"/><path class="cls-11" d="m223.17,107.61c-1.81,0-3.28,3.34-3.28,5.11s1.47,3.21,3.28,3.21,3.28-1.44,3.28-3.21-1.47-5.11-3.28-5.11"/><path class="cls-11" d="m264.1,95.86c-.12,1.77,1.24,3.3,3.05,3.43s3.38-1.2,3.5-2.97-1.11-5.2-2.92-5.32-3.51,3.1-3.63,4.86Z"/><path class="cls-11" d="m260.57,91.37c-1.8-.25-3.71,2.85-3.95,4.61s1.01,3.38,2.81,3.63,3.45-.97,3.69-2.72-.75-5.26-2.55-5.51"/><path class="cls-11" d="m259.15,101.57c-1.81-.02-3.31,3.31-3.33,5.08s1.44,3.22,3.25,3.24,3.3-1.4,3.31-3.17-1.42-5.12-3.23-5.14"/><path class="cls-11" d="m236.79,94.03c-1.81-.02-3.31,3.31-3.33,5.08s1.44,3.22,3.25,3.24,3.3-1.4,3.31-3.17-1.42-5.12-3.23-5.14"/><path class="cls-11" d="m281.54,101.89c-1.78.35-2.58,3.9-2.25,5.64s2.06,2.87,3.83,2.52,2.95-2.04,2.61-3.77-2.42-4.73-4.2-4.39"/><path class="cls-11" d="m254.86,112.74c-1.81.16-2.98,3.61-2.82,5.38s1.75,3.06,3.55,2.9,3.14-1.72,2.99-3.48-1.91-4.96-3.72-4.8"/><path class="cls-11" d="m267.5,100.68c-1.81.16-2.98,3.61-2.82,5.38s1.75,3.06,3.55,2.9,3.14-1.72,2.99-3.48-1.91-4.96-3.72-4.8"/><path class="cls-11" d="m274.56,105.05c-1.81.16-2.98,3.61-2.82,5.38s1.75,3.06,3.55,2.9,3.14-1.72,2.99-3.48-1.91-4.96-3.72-4.8"/><path class="cls-11" d="m251.68,98.76c-1.78-.34-3.85,2.67-4.18,4.41s.85,3.42,2.63,3.76,3.49-.8,3.82-2.54-.49-5.29-2.27-5.63"/><path class="cls-11" d="m205.54,103.46c-1.8-.2-3.63,2.95-3.83,4.71s1.1,3.35,2.91,3.55,3.42-1.06,3.62-2.82-.89-5.24-2.69-5.44"/><path class="cls-11" d="m213.19,106.71c-1.8-.2-3.63,2.95-3.83,4.71s1.1,3.35,2.91,3.55,3.42-1.06,3.62-2.82-.89-5.24-2.69-5.44"/><path class="cls-11" d="m206.12,43.18c-1.75-.28-3.4.95-3.68,2.74s.9,3.47,2.65,3.75,5.28-.65,5.56-2.44-2.78-3.77-4.53-4.05Z"/><path class="cls-11" d="m199.63,43.23c.41-1.77-2.52-3.95-4.24-4.34s-3.45.71-3.86,2.48.66,3.52,2.39,3.92,5.31-.29,5.71-2.05"/><path class="cls-11" d="m210.74,75.81c-1.42-1.13-4.65.57-5.75,1.96s-.84,3.42.58,4.55,3.46.92,4.56-.47,2.03-4.91.61-6.04"/><path class="cls-11" d="m210.04,56.92c.52-1.74-2.26-4.1-3.95-4.61s-3.49.49-4.01,2.23.44,3.56,2.13,4.06,5.31.05,5.83-1.68"/><path class="cls-11" d="m206.49,25.05c-1.75-.28-3.4.95-3.68,2.74s.9,3.47,2.65,3.75,5.28-.65,5.56-2.44-2.78-3.77-4.53-4.05Z"/><path class="cls-11" d="m210.41,38.79c.52-1.74-2.26-4.1-3.95-4.61s-3.49.49-4.01,2.23.44,3.56,2.13,4.06,5.31.05,5.83-1.68"/><path class="cls-11" d="m205.41,63.49c-1.77.1-3.12,1.64-3.02,3.45s1.61,3.2,3.38,3.1,5.02-1.75,4.92-3.56-3.51-3.1-5.28-3Z"/><path class="cls-11" d="m201.15,61.78c-.29-1.79-3.82-2.7-5.57-2.42s-2.93,1.97-2.63,3.76,1.95,3.01,3.69,2.72,4.8-2.27,4.51-4.06"/><path class="cls-11" d="m191.15,57.99c0-1.81-3.34-3.28-5.11-3.28s-3.21,1.47-3.21,3.28,1.44,3.28,3.21,3.28,5.11-1.47,5.11-3.28"/><path class="cls-11" d="m198.68,52.35c0-1.81-3.34-3.28-5.11-3.28s-3.21,1.47-3.21,3.28,1.44,3.28,3.21,3.28,5.11-1.47,5.11-3.28"/><path class="cls-11" d="m202.75,74.93c.34-1.78-2.67-3.85-4.41-4.18s-3.42.85-3.76,2.63.8,3.49,2.54,3.82,5.29-.49,5.63-2.27"/><path class="cls-11" d="m186.98,70.71c-1.77.1-3.12,1.64-3.02,3.45s1.61,3.2,3.38,3.1,5.02-1.75,4.92-3.56-3.51-3.1-5.28-3Z"/><path class="cls-11" d="m188.06,79.45c-1.77.1-3.12,1.64-3.02,3.45s1.61,3.2,3.38,3.1,5.02-1.75,4.92-3.56-3.51-3.1-5.28-3Z"/><path class="cls-11" d="m202.57,82.51c-1.4-1.15-4.65.51-5.77,1.88s-.89,3.41.51,4.56,3.45.97,4.57-.4,2.09-4.88.69-6.03"/><path class="cls-11" d="m279.48,82.22c1.77-.41,3.95,2.52,4.34,4.24s-.71,3.45-2.48,3.86-3.52-.66-3.92-2.39.29-5.31,2.05-5.71"/><path class="cls-11" d="m285.28,43.18c1.75-.28,3.4.95,3.68,2.74s-.9,3.47-2.65,3.75-5.28-.65-5.56-2.44,2.78-3.77,4.53-4.05Z"/><path class="cls-11" d="m291.78,43.23c-.41-1.77,2.52-3.95,4.24-4.34s3.45.71,3.86,2.48-.66,3.52-2.39,3.92-5.31-.29-5.71-2.05"/><path class="cls-11" d="m280.67,74.59c1.42-1.13,4.65.57,5.75,1.96s.84,3.42-.58,4.55-3.46.92-4.56-.47-2.03-4.91-.61-6.04"/><path class="cls-11" d="m281.36,56.92c-.52-1.74,2.26-4.1,3.95-4.61s3.49.49,4.01,2.23-.44,3.56-2.13,4.06-5.31.05-5.83-1.68"/><path class="cls-11" d="m284.71,25.05c1.75-.28,3.4.95,3.68,2.74s-.9,3.47-2.65,3.75-5.28-.65-5.56-2.44,2.78-3.77,4.53-4.05Z"/><path class="cls-11" d="m280.78,38.79c-.52-1.74,2.26-4.1,3.95-4.61s3.49.49,4.01,2.23-.44,3.56-2.13,4.06-5.31.05-5.83-1.68"/><path class="cls-11" d="m285.99,63.49c1.77.1,3.12,1.64,3.02,3.45s-1.61,3.2-3.38,3.1-5.02-1.75-4.92-3.56,3.51-3.1,5.28-3Z"/><path class="cls-11" d="m290.25,61.78c.29-1.79,3.82-2.7,5.57-2.42s2.93,1.97,2.63,3.76-1.95,3.01-3.69,2.72-4.8-2.27-4.51-4.06"/><path class="cls-11" d="m300.25,57.99c0-1.81,3.34-3.28,5.11-3.28s3.21,1.47,3.21,3.28-1.44,3.28-3.21,3.28-5.11-1.47-5.11-3.28"/><path class="cls-11" d="m292.72,52.35c0-1.81,3.34-3.28,5.11-3.28s3.21,1.47,3.21,3.28-1.44,3.28-3.21,3.28-5.11-1.47-5.11-3.28"/><path class="cls-11" d="m288.65,74.93c-.34-1.78,2.67-3.85,4.41-4.18s3.42.85,3.76,2.63-.8,3.49-2.54,3.82-5.29-.49-5.63-2.27"/><path class="cls-11" d="m304.42,70.71c1.77.1,3.12,1.64,3.02,3.45s-1.61,3.2-3.38,3.1-5.02-1.75-4.92-3.56,3.51-3.1,5.28-3Z"/><path class="cls-11" d="m288.83,82.51c1.4-1.15,4.65.51,5.77,1.88s.89,3.41-.51,4.56-3.45.97-4.57-.4-2.09-4.88-.69-6.03"/><path class="cls-11" d="m246.58,107.62c-1.81-.1-3.46,3.15-3.56,4.92s1.29,3.28,3.1,3.38,3.36-1.25,3.45-3.02-1.19-5.18-3-5.28"/><path class="cls-15" d="m26.33,478.45c0-1.77,1.47-3.21,3.28-3.21s3.28,1.44,3.28,3.21-1.47,5.11-3.28,5.11-3.28-3.34-3.28-5.11Z"/><path class="cls-11" d="m59.33,491c0,1.77,1.47,3.21,3.28,3.21s3.28-1.44,3.28-3.21-1.47-5.11-3.28-5.11-3.28,3.34-3.28,5.11Z"/></g><g id="light"><line class="cls-12" x1="282.13" y1="47.6" x2="208.85" y2="65.58"/><polygon class="cls-14" points="280.83 45.35 285.62 46.74 282.02 50.19 280.83 45.35"/><polygon class="cls-14" points="208.97 62.98 205.37 66.43 210.15 67.82 208.97 62.98"/><path class="cls-9" d="m63.53,49.53c-.16-.03-.33-.06-.49-.09"/><path class="cls-1" d="m62.08,49.19c-1.11-.32-2.19-.78-3.16-1.35"/><path class="cls-9" d="m58.5,47.59c-.14-.09-.28-.18-.42-.28"/><polygon class="cls-14" points="62.9 46.9 67.12 49.55 62.71 51.88 62.9 46.9"/><polygon class="cls-14" points="60.42 45.92 55.57 44.75 56.98 49.53 60.42 45.92"/><path class="cls-9" d="m256.9,63.33c-.16.03-.33.06-.49.08"/><path class="cls-1" d="m255.43,63.52c-1.15.09-2.32.03-3.43-.16"/><path class="cls-9" d="m251.51,63.27c-.16-.03-.33-.07-.49-.11"/><polygon class="cls-14" points="255.39 61.09 260.27 62.1 256.96 65.82 255.39 61.09"/><polygon class="cls-14" points="252.72 61.04 247.77 61.63 250.76 65.62 252.72 61.04"/><path class="cls-9" d="m243.22,63.17c-.15.07-.3.14-.46.21"/><path class="cls-4" d="m241.8,63.78c-3.62,1.46-7.92,2.45-11.6,2.69"/><path class="cls-9" d="m229.69,66.49c-.17,0-.33.01-.5.02"/><polygon class="cls-14" points="241.37 61.25 246.36 61.43 243.71 65.66 241.37 61.25"/><polygon class="cls-14" points="230.04 63.98 225.6 66.26 229.8 68.96 230.04 63.98"/><line class="cls-9" x1="484.84" y1="470.11" x2="484.65" y2="469.65"/><path class="cls-2" d="m484.28,468.72l-.59-1.47c-14.54-14.26-44.92-26.07-63.49-24.81"/><path class="cls-9" d="m419.7,442.47c-.14.01-.29.02-.43.04l-.06.02"/><polygon class="cls-14" points="486.88 468.51 486.17 473.44 482.25 470.36 486.88 468.51"/><polygon class="cls-14" points="419.2 440.05 415.83 443.73 420.69 444.81 419.2 440.05"/><path class="cls-9" d="m227.04,45.02c-.12-.11-.24-.23-.36-.35"/><path class="cls-1" d="m226.01,43.94c-.75-.88-1.4-1.85-1.9-2.86"/><path class="cls-9" d="m223.9,40.64c-.07-.15-.13-.31-.2-.46"/><polygon class="cls-14" points="227.96 42.47 230.03 47 225.07 46.53 227.96 42.47"/><polygon class="cls-14" points="226.42 40.29 223.02 36.65 221.56 41.42 226.42 40.29"/><path class="cls-9" d="m32.13,60.37c-.16.06-.31.12-.47.18"/><path class="cls-10" d="m30.79,60.78c-1.03.23-2.09.26-3.13.1"/><path class="cls-9" d="m27.23,60.8c-.16-.04-.32-.08-.48-.12"/><polygon class="cls-14" points="30.07 58.58 35.05 58.27 32.83 62.73 30.07 58.58"/><polygon class="cls-14" points="28.62 58.68 23.64 58.89 26.31 63.1 28.62 58.68"/><line class="cls-12" x1="442.94" y1="105.88" x2="440.62" y2="44.54"/><polygon class="cls-14" points="445.4 105.06 443.07 109.47 440.42 105.25 445.4 105.06"/><polygon class="cls-14" points="443.14 45.17 440.48 40.95 438.16 45.36 443.14 45.17"/><line class="cls-12" x1="454.04" y1="110.21" x2="453.97" y2="95.95"/><polygon class="cls-14" points="456.53 109.47 454.06 113.8 451.55 109.5 456.53 109.47"/><polygon class="cls-14" points="456.46 96.67 453.95 92.36 451.48 96.7 456.46 96.67"/><line class="cls-12" x1="431.85" y1="91.99" x2="473.96" y2="49.54"/><polygon class="cls-14" points="434.13 93.23 429.32 94.54 430.59 89.72 434.13 93.23"/><polygon class="cls-14" points="475.22 51.81 476.49 46.99 471.68 48.3 475.22 51.81"/><line class="cls-12" x1="457.55" y1="483.24" x2="482.71" y2="424.62"/><polygon class="cls-14" points="460.13 483.55 456.14 486.54 455.55 481.59 460.13 483.55"/><polygon class="cls-14" points="484.71 426.27 484.12 421.32 480.13 424.3 484.71 426.27"/><line class="cls-12" x1="419.24" y1="440.29" x2="440.25" y2="437.23"/><polygon class="cls-14" points="420.32 442.65 415.69 440.81 419.6 437.72 420.32 442.65"/><polygon class="cls-14" points="439.89 439.8 443.8 436.72 439.17 434.87 439.89 439.8"/><line class="cls-12" x1="417.07" y1="484.09" x2="429.95" y2="495.07"/><polygon class="cls-14" points="416.01 486.46 414.33 481.77 419.24 482.67 416.01 486.46"/><polygon class="cls-14" points="427.78 496.49 432.68 497.39 431.01 492.69 427.78 496.49"/><line class="cls-12" x1="646.55" y1="679.78" x2="655.86" y2="672.75"/><polygon class="cls-14" points="648.64 681.33 643.69 681.94 645.63 677.35 648.64 681.33"/><polygon class="cls-14" points="656.78 675.17 658.72 670.58 653.77 671.2 656.78 675.17"/><line class="cls-12" x1="466.93" y1="69.93" x2="485.62" y2="51.09"/><polygon class="cls-14" points="469.21 71.17 464.4 72.48 465.67 67.66 469.21 71.17"/><polygon class="cls-14" points="486.87 53.36 488.15 48.54 483.33 49.85 486.87 53.36"/><line class="cls-12" x1="657.19" y1="98.77" x2="657.02" y2="71"/><polygon class="cls-14" points="659.68 98.02 657.21 102.36 654.69 98.05 659.68 98.02"/><polygon class="cls-14" points="659.52 71.71 657 67.41 654.53 71.74 659.52 71.71"/><line class="cls-12" x1="692.09" y1="81.79" x2="692.31" y2="68.1"/><polygon class="cls-14" points="694.59 81.1 692.03 85.37 689.61 81.02 694.59 81.1"/><polygon class="cls-14" points="694.8 68.87 692.37 64.51 689.81 68.79 694.8 68.87"/><line class="cls-12" x1="706.77" y1="81.99" x2="697.5" y2="59.14"/><polygon class="cls-14" points="708.81 80.38 708.12 85.32 704.19 82.25 708.81 80.38"/><polygon class="cls-14" points="700.08 58.88 696.15 55.81 695.46 60.75 700.08 58.88"/><line class="cls-12" x1="676.14" y1="109.66" x2="691.58" y2="51.53"/><polygon class="cls-14" points="678.73 109.6 675.22 113.13 673.91 108.32 678.73 109.6"/><polygon class="cls-14" points="693.81 52.87 692.51 48.06 688.99 51.59 693.81 52.87"/><line class="cls-12" x1="646.92" y1="99.16" x2="629.45" y2="61.62"/><polygon class="cls-14" points="648.88 97.44 648.44 102.41 644.36 99.55 648.88 97.44"/><polygon class="cls-14" points="632.02 61.23 627.94 58.36 627.5 63.33 632.02 61.23"/><path class="cls-9" d="m700.93,86.77c-.14.09-.28.17-.43.26"/><path class="cls-3" d="m699.56,87.51c-1.13.5-2.34.82-3.55.92"/><path class="cls-9" d="m695.49,88.46c-.17,0-.33,0-.5,0"/><polygon class="cls-14" points="698.65 85.28 703.54 84.31 701.94 89.03 698.65 85.28"/><polygon class="cls-14" points="696.19 86.01 691.49 87.65 695.26 90.91 696.19 86.01"/><path class="cls-9" d="m641.35,84.26c-.14.09-.29.17-.44.24"/><path class="cls-8" d="m639.87,84.96c-1.24.46-2.58.66-3.89.58"/><path class="cls-9" d="m635.43,85.49c-.16-.02-.33-.05-.49-.08"/><polygon class="cls-14" points="639.08 82.76 643.98 81.82 642.35 86.53 639.08 82.76"/><polygon class="cls-14" points="636.58 83.24 631.65 83.98 634.75 87.88 636.58 83.24"/><path class="cls-12" d="m628.14,435.54c-4.86-5.58-15.09-19.12-12.43-31.75"/><polygon class="cls-14" points="629.51 433.3 630.57 438.17 625.82 436.66 629.51 433.3"/><polygon class="cls-14" points="617.96 405.21 616.77 400.37 613.17 403.82 617.96 405.21"/><path class="cls-12" d="m733.38,500.89c-5.69-2.43-16.56-9.28-16.87-26.23"/><polygon class="cls-14" points="733.55 498.25 736.77 502.06 731.86 502.95 733.55 498.25"/><polygon class="cls-14" points="719.04 475.41 716.6 471.07 714.05 475.36 719.04 475.41"/><path class="cls-12" d="m734.24,499.52c-3.82-4.48-10.32-14.99-7.38-32.49"/><polygon class="cls-14" points="735.6 497.22 736.77 502.06 731.99 500.66 735.6 497.22"/><polygon class="cls-14" points="729.22 468.2 727.56 463.5 724.31 467.29 729.22 468.2"/><path class="cls-12" d="m485.83,682.85c6.35-4.28,20.25-16.37,19.43-39.9"/><polygon class="cls-14" points="487.74 684.56 482.75 684.69 485.13 680.31 487.74 684.56"/><polygon class="cls-14" points="507.76 643.53 505.02 639.36 502.78 643.82 507.76 643.53"/><path class="cls-12" d="m642.58,675.68c-.37-10.44,1.24-40.61,31.03-47.94"/><polygon class="cls-14" points="645.09 674.82 642.83 679.26 640.11 675.07 645.09 674.82"/><polygon class="cls-14" points="673.44 630.36 677.12 627 672.38 625.49 673.44 630.36"/></g><g id="heavy"><line class="cls-5" x1="37.78" y1="91.33" x2="30.86" y2="68.92"/><polygon class="cls-14" points="42.11 88.47 39.9 98.19 32.59 91.41 42.11 88.47"/><polygon class="cls-14" points="36.06 68.84 28.75 62.06 26.53 71.78 36.06 68.84"/><line class="cls-5" x1="55.91" y1="88.76" x2="58.97" y2="58.92"/><polygon class="cls-14" points="61.02 87.81 55.18 95.89 51.1 86.79 61.02 87.81"/><polygon class="cls-14" points="63.78 60.88 59.7 51.78 53.86 59.86 63.78 60.88"/><line class="cls-5" x1="244.19" y1="89.9" x2="254.98" y2="71.43"/><polygon class="cls-14" points="249.23 91.16 240.57 96.1 240.62 86.13 249.23 91.16"/><polygon class="cls-14" points="258.55 75.2 258.6 65.23 249.94 70.17 258.55 75.2"/><line class="cls-5" x1="458.2" y1="42.27" x2="460.19" y2="32.42"/><polygon class="cls-14" points="463.38 41.83 456.78 49.3 453.6 39.85 463.38 41.83"/><polygon class="cls-14" points="464.79 34.84 461.62 25.39 455.02 32.86 464.79 34.84"/><line class="cls-5" x1="636.19" y1="74.85" x2="647.19" y2="55.91"/><polygon class="cls-14" points="641.23 76.1 632.58 81.06 632.61 71.09 641.23 76.1"/><polygon class="cls-14" points="650.77 59.68 650.79 49.7 642.14 54.67 650.77 59.68"/><line class="cls-5" x1="688.76" y1="112.62" x2="700.14" y2="93.01"/><polygon class="cls-14" points="693.81 113.86 685.16 118.83 685.18 108.85 693.81 113.86"/><polygon class="cls-14" points="703.72 96.78 703.74 86.8 695.09 91.77 703.72 96.78"/><line class="cls-7" x1="44.86" y1="305.44" x2="44.86" y2="297.86"/><polygon class="cls-14" points="47.85 304.56 44.86 309.74 41.86 304.56 47.85 304.56"/><polygon class="cls-14" points="47.85 298.74 44.86 293.56 41.86 298.74 47.85 298.74"/><line class="cls-7" x1="19.21" y1="488.53" x2="19.21" y2="480.95"/><polygon class="cls-14" points="22.2 487.65 19.21 492.83 16.22 487.65 22.2 487.65"/><polygon class="cls-14" points="22.2 481.83 19.21 476.65 16.22 481.83 22.2 481.83"/><line class="cls-7" x1="40.38" y1="488.67" x2="40.38" y2="481.1"/><polygon class="cls-14" points="43.37 487.8 40.38 492.98 37.39 487.8 43.37 487.8"/><polygon class="cls-14" points="43.37 481.98 40.38 476.8 37.39 481.98 43.37 481.98"/><line class="cls-7" x1="50.96" y1="488.67" x2="50.96" y2="481.1"/><polygon class="cls-14" points="53.96 487.8 50.96 492.98 47.97 487.8 53.96 487.8"/><polygon class="cls-14" points="53.96 481.98 50.96 476.8 47.97 481.98 53.96 481.98"/><line class="cls-7" x1="72.76" y1="490.05" x2="72.76" y2="482.47"/><polygon class="cls-14" points="75.75 489.17 72.76 494.35 69.77 489.17 75.75 489.17"/><polygon class="cls-14" points="75.75 483.35 72.76 478.17 69.77 483.35 75.75 483.35"/><line class="cls-7" x1="205.64" y1="425.1" x2="208.07" y2="417.92"/><polygon class="cls-14" points="208.75 425.23 204.25 429.17 203.09 423.31 208.75 425.23"/><polygon class="cls-14" points="210.62 419.72 209.45 413.85 204.96 417.79 210.62 419.72"/><line class="cls-7" x1="242.15" y1="406.95" x2="242.05" y2="399.38"/><polygon class="cls-14" points="245.13 406.04 242.2 411.26 239.14 406.12 245.13 406.04"/><polygon class="cls-14" points="245.06 400.22 242 395.08 239.07 400.29 245.06 400.22"/><line class="cls-7" x1="275.93" y1="431.52" x2="281.47" y2="426.36"/><polygon class="cls-14" points="278.61 433.11 272.77 434.45 274.53 428.73 278.61 433.11"/><polygon class="cls-14" points="282.87 429.15 284.63 423.43 278.8 424.77 282.87 429.15"/><line class="cls-7" x1="230.8" y1="449.49" x2="236.95" y2="453.91"/><polygon class="cls-14" points="229.77 452.43 227.3 446.98 233.25 447.57 229.77 452.43"/><polygon class="cls-14" points="234.5 455.83 240.45 456.42 237.98 450.96 234.5 455.83"/><line class="cls-7" x1="220.63" y1="485.16" x2="218.33" y2="492.37"/><polygon class="cls-14" points="217.52 485.08 221.94 481.06 223.22 486.9 217.52 485.08"/><polygon class="cls-14" points="215.75 490.63 217.02 496.47 221.45 492.45 215.75 490.63"/><line class="cls-7" x1="270.16" y1="479.4" x2="267.85" y2="486.61"/><polygon class="cls-14" points="267.04 479.32 271.47 475.3 272.74 481.14 267.04 479.32"/><polygon class="cls-14" points="265.27 484.87 266.54 490.72 270.97 486.69 265.27 484.87"/><line class="cls-7" x1="195.35" y1="455.63" x2="189.32" y2="460.2"/><polygon class="cls-14" points="192.85 453.77 198.78 453.03 196.46 458.54 192.85 453.77"/><polygon class="cls-14" points="188.21 457.29 185.89 462.8 191.82 462.06 188.21 457.29"/><line class="cls-7" x1="242.53" y1="274.26" x2="242.53" y2="266.68"/><polygon class="cls-14" points="245.53 273.38 242.53 278.56 239.54 273.38 245.53 273.38"/><polygon class="cls-14" points="245.53 267.56 242.53 262.38 239.54 267.56 245.53 267.56"/><line class="cls-7" x1="465.58" y1="267.2" x2="465.58" y2="259.63"/><polygon class="cls-14" points="468.57 266.33 465.58 271.51 462.59 266.33 468.57 266.33"/><polygon class="cls-14" points="468.57 260.5 465.58 255.32 462.59 260.5 468.57 260.5"/><line class="cls-7" x1="659.63" y1="263.19" x2="659.63" y2="255.62"/><polygon class="cls-14" points="662.62 262.32 659.63 267.5 656.64 262.32 662.62 262.32"/><polygon class="cls-14" points="662.62 256.5 659.63 251.31 656.64 256.5 662.62 256.5"/><line class="cls-7" x1="29.62" y1="488.6" x2="29.62" y2="481.03"/><polygon class="cls-14" points="32.61 487.73 29.62 492.91 26.63 487.73 32.61 487.73"/><polygon class="cls-14" points="32.61 481.91 29.62 476.73 26.63 481.91 32.61 481.91"/><line class="cls-7" x1="62.17" y1="488.6" x2="62.17" y2="481.03"/><polygon class="cls-14" points="65.16 487.73 62.17 492.91 59.18 487.73 65.16 487.73"/><polygon class="cls-14" points="65.16 481.91 62.17 476.73 59.18 481.91 65.16 481.91"/><line class="cls-7" x1="455.74" y1="87.18" x2="460.9" y2="76.08"/><polygon class="cls-14" points="458.82 87.65 453.92 91.08 453.39 85.12 458.82 87.65"/><polygon class="cls-14" points="463.25 78.14 462.72 72.18 457.82 75.61 463.25 78.14"/><line class="cls-7" x1="463.94" y1="85.35" x2="452.32" y2="78.86"/><polygon class="cls-14" points="464.63 82.32 467.69 87.45 461.71 87.54 464.63 82.32"/><polygon class="cls-14" points="454.54 76.68 448.56 76.76 451.62 81.9 454.54 76.68"/><line class="cls-5" x1="223.4" y1="672.67" x2="253.74" y2="647.42"/><polygon class="cls-14" points="227.71 675.56 217.88 677.26 221.33 667.9 227.71 675.56"/><polygon class="cls-14" points="255.81 652.18 259.25 642.83 249.43 644.52 255.81 652.18"/><line class="cls-5" x1="432.67" y1="673.19" x2="439.17" y2="666.73"/><polygon class="cls-14" points="437.22 675.7 427.58 678.25 430.19 668.63 437.22 675.7"/><polygon class="cls-14" points="441.65 671.3 444.26 661.68 434.62 664.22 441.65 671.3"/><line class="cls-7" x1="637.19" y1="440.02" x2="641.91" y2="437.54"/><polygon class="cls-14" points="639.9 442.82 632.43 442.52 636.42 436.2 639.9 442.82"/><polygon class="cls-14" points="642.68 441.36 646.68 435.04 639.21 434.74 642.68 441.36"/><line class="cls-7" x1="665.66" y1="475.5" x2="668.27" y2="469.4"/><polygon class="cls-14" points="669.52 475.97 663.54 480.45 662.65 473.02 669.52 475.97"/><polygon class="cls-14" points="671.28 471.88 670.39 464.45 664.4 468.94 671.28 471.88"/><line class="cls-7" x1="718.33" y1="466.37" x2="721.67" y2="462.85"/><polygon class="cls-14" points="721.79 468.15 714.62 470.27 716.37 463 721.79 468.15"/><polygon class="cls-14" points="723.62 466.22 725.37 458.95 718.2 461.07 723.62 466.22"/><line class="cls-5" x1="449.16" y1="430.86" x2="455.69" y2="435.5"/><polygon class="cls-14" points="447.46 435.77 443.31 426.7 453.24 427.64 447.46 435.77"/><polygon class="cls-14" points="451.61 438.72 461.54 439.66 457.39 430.6 451.61 438.72"/><line class="cls-7" x1="423.71" y1="472.14" x2="416.76" y2="474.75"/><polygon class="cls-14" points="421.36 469.02 428.74 470.24 424 476.02 421.36 469.02"/><polygon class="cls-14" points="416.47 470.86 411.73 476.65 419.11 477.86 416.47 470.86"/><line class="cls-7" x1="454.04" y1="470.94" x2="451.94" y2="478.06"/><polygon class="cls-14" points="450.14 470.93 455.56 465.78 457.32 473.05 450.14 470.93"/><polygon class="cls-14" points="448.66 475.95 450.42 483.22 455.84 478.06 448.66 475.95"/><line class="cls-7" x1="442.96" y1="457.17" x2="449.58" y2="460.42"/><polygon class="cls-14" points="442.29 461.01 438.12 454.8 445.59 454.29 442.29 461.01"/><polygon class="cls-14" points="446.95 463.3 454.42 462.79 450.25 456.58 446.95 463.3"/><line class="cls-7" x1="502.86" y1="460.75" x2="508.05" y2="466"/><polygon class="cls-14" points="500.97 464.15 499.08 456.91 506.3 458.9 500.97 464.15"/><polygon class="cls-14" points="504.62 467.85 511.83 469.83 509.94 462.6 504.62 467.85"/><path class="cls-5" d="m220.42,648.42c5.41-1.33,12.77-4.36,17.89-11.29"/><polygon class="cls-14" points="222.65 652.99 213.33 649.45 221.05 643.15 222.65 652.99"/><polygon class="cls-14" points="241.72 640.82 241.79 630.85 233.12 635.77 241.72 640.82"/><path class="cls-5" d="m218.47,658.14c9.65.08,26.96,1.48,38.76,9.62"/><polygon class="cls-14" points="220.02 663.18 211.3 658.34 219.85 653.21 220.02 663.18"/><polygon class="cls-14" points="252.83 670.75 262.65 672.47 259.23 663.1 252.83 670.75"/><path class="cls-5" d="m33.07,647.03c1.37,4.38,4.43,10.19,11.24,15.62"/><polygon class="cls-14" points="28.59 649.31 32.01 639.94 38.42 647.57 28.59 649.31"/><polygon class="cls-14" points="40.32 665.82 50.25 666.68 46.03 657.64 40.32 665.82"/><path class="cls-5" d="m42.9,645.87c.51,4.53-1.14,10.24-10.8,13.55"/><polygon class="cls-14" points="38.3 648.82 40.51 639.1 47.83 645.87 38.3 648.82"/><polygon class="cls-14" points="32.2 654.11 25.11 661.12 34.73 663.76 32.2 654.11"/><path class="cls-5" d="m665.99,655.27c3.58,5.03,9.93,12.27,19.94,18.17"/><polygon class="cls-14" points="662.64 659.1 662.27 649.13 671.09 653.8 662.64 659.1"/><polygon class="cls-14" points="682.34 677.1 692.31 676.76 687.03 668.3 682.34 677.1"/><path class="cls-5" d="m677.01,654.82c.52,4.94-.47,12.39-7,21.75"/><polygon class="cls-14" points="672.37 657.63 674.87 647.98 681.98 654.97 672.37 657.63"/><polygon class="cls-14" points="666.86 672.33 665.57 682.22 674.78 678.39 666.86 672.33"/><line class="cls-5" x1="223.42" y1="94.16" x2="224.87" y2="80.01"/><polygon class="cls-14" points="228.53 93.22 222.69 101.3 218.61 92.2 228.53 93.22"/><polygon class="cls-14" points="229.68 81.97 225.6 72.88 219.76 80.96 229.68 81.97"/><line class="cls-5" x1="288.54" y1="38.27" x2="276.48" y2="36.46"/><polygon class="cls-14" points="287.84 33.12 295.63 39.33 286.35 42.98 287.84 33.12"/><polygon class="cls-14" points="278.66 31.74 269.38 35.39 277.18 41.6 278.66 31.74"/><line class="cls-5" x1="215.34" y1="46.93" x2="202.57" y2="53.99"/><polygon class="cls-14" points="211.65 43.28 221.62 43.46 216.48 52 211.65 43.28"/><polygon class="cls-14" points="201.43 48.92 196.29 57.47 206.26 57.65 201.43 48.92"/></g></svg>